<svg xmlns="http://www.w3.org/2000/svg" xmlns:xlink="http://www.w3.org/1999/xlink" width="0" height="0" style="position:absolute">
	
		<symbol id="icon-about" viewBox="0 0 4 14">
			<g fill="none" fill-rule="evenodd"><ellipse fill="#FFF" fill-rule="nonzero" cx="2" cy="1.5" rx="1" ry="1.5"></ellipse><path stroke="#FFF" stroke-linecap="round" stroke-linejoin="round" d="M3 14V5H0"></path></g>
		</symbol>
	
		<symbol id="icon-arrow-down" viewBox="0 0 32 15">
			<path d="M30 1L15 14 1 1" fill="none" fill-rule="evenodd" stroke-linejoin="round"></path>
		</symbol>
	
		<symbol id="icon-close" viewBox="0 0 24 30">
			<path d="M20.827 4.357l-.707-.707-8.131 8.132L3.857 3.65l-.707.707 8.132 8.132-8.132 8.132.707.707 8.132-8.132 8.131 8.132.707-.707-8.131-8.132z"></path>
		</symbol>
	
		<symbol id="icon-contact-circle" viewBox="0 0 185 188">
			<path d="M-2.5 375C-106.053 375-190 291.053-190 187.5S-106.053 0-2.5 0 185 83.947 185 187.5 101.053 375-2.5 375zm.279-43.673c79.28 0 143.548-64.269 143.548-143.548 0-79.28-64.269-143.548-143.548-143.548-79.28 0-143.548 64.268-143.548 143.548S-81.501 331.327-2.221 331.327z" fill="#F15959" fill-rule="evenodd" fill-opacity=".3"></path>
		</symbol>
	
		<symbol id="icon-date" viewBox="0 0 15 15">
			<g fill="#F15959" fill-rule="nonzero"><path d="M13.75 1.406H11.72V.47a.468.468 0 1 0-.938 0v.937H7.97V.47a.469.469 0 1 0-.938 0v.937H4.22V.47a.469.469 0 1 0-.938 0v.937h-2.03C.56 1.406 0 1.966 0 2.656V13.75C0 14.44.56 15 1.25 15h12.5c.69 0 1.25-.56 1.25-1.25V2.656c0-.69-.56-1.25-1.25-1.25zm.313 12.344c0 .172-.14.313-.313.313H1.25a.313.313 0 0 1-.313-.313V2.656c0-.172.14-.312.313-.312h2.031v.937a.469.469 0 1 0 .938 0v-.937H7.03v.937a.469.469 0 1 0 .938 0v-.937h2.812v.937a.468.468 0 1 0 .938 0v-.937h2.031c.172 0 .313.14.313.312V13.75z"></path><path d="M3.281 5.625h1.875v1.406H3.281zM3.281 7.969h1.875v1.406H3.281zM3.281 10.313h1.875v1.406H3.281zM6.563 10.313h1.875v1.406H6.563zM6.563 7.969h1.875v1.406H6.563zM6.563 5.625h1.875v1.406H6.563zM9.844 10.313h1.875v1.406H9.844zM9.844 7.969h1.875v1.406H9.844zM9.844 5.625h1.875v1.406H9.844z"></path></g>
		</symbol>
	
		<symbol id="icon-discord" viewBox="0 0 21 14">
			<path d="M17.516 2.394C16.349 1.271 12.25.6 12.25.6v.35s2.173.73 2.625 1.24l-.306.131c-.423-.394-1.517-.656-2.042-.802-.03-.015-.073-.015-.088-.015-.335-.058-.7-.102-1.05-.13-.044 0-.073 0-.117-.015-.116-.015-.32-.015-.32-.015h-.117c-.175 0-.38-.015-.555-.015H10.164c-.176 0-.307 0-.482.015l-.058-.015h-.059c-.13 0-.277.015-.408.03-.044 0-.088 0-.146.014-.365.03-.715.073-1.05.131-.03 0-.059 0-.088.015-.525.146-1.604.408-2.027.802l-.263-.13C6.035 1.68 8.296.95 8.296.95V.6s-4.186.686-5.353 1.794C1.133 4.13.2 10.987.2 10.987s1.21 2.786 4.916 1.838l.671-.992s-1.56-.7-1.56-1.021c0 0 .408.145.554.19.569.189 1.721.583 2.304.758.03.014.059.014.088.014.088.015.175.03.248.059.044.014.088.014.131.029.073.014.146.029.234.044.058.014.116.014.175.029.073.014.146.029.219.029.058.015.13.015.19.03.072.014.13.014.203.028.073.015.146.015.22.03.058 0 .13.014.189.014.073 0 .16.015.233.015.059 0 .132.014.19.014.073 0 .073 0 .219.015 0 0-.015 0 0 0h1.4c.059 0 .102-.015.175-.015s.146-.014.234-.014c.058 0 .131-.015.19-.015.072-.015.145-.015.204-.03.072-.014.13-.014.204-.028.058-.015.131-.015.19-.03.072-.014.145-.029.218-.029.059-.014.117-.014.175-.029.073-.014.16-.029.234-.044.043-.014.087-.014.131-.029.088-.014.175-.029.248-.058.03 0 .058-.015.088-.015.583-.16 1.735-.554 2.304-.758.132-.044.555-.19.555-.19 0 .306-1.561 1.021-1.561 1.021l.67.992c3.692.948 4.917-1.838 4.917-1.838s-.875-6.87-2.684-8.607zM7.406 9.66A1.662 1.662 0 1 1 9.07 7.996c.015.92-.744 1.663-1.663 1.663zm5.573 0a1.662 1.662 0 1 1-.001-3.324 1.662 1.662 0 0 1 .001 3.324z" fill="#FFF" fill-rule="nonzero"></path>
		</symbol>
	
		<symbol id="icon-facebook" viewBox="0 0 11 20">
			<path d="M6.691 6.618V4.632c0-.896.217-1.323 1.608-1.323H10V0H7.132C3.563 0 2.426 1.585 2.426 4.393v2.225H0V10h2.426v10h4.265V10h2.957l.396-3.382H6.691z" fill="#FFF" fill-rule="nonzero"></path>
		</symbol>
	
		<symbol id="icon-folding" viewBox="0 0 25 25">
			<g fill="#FFF" fill-rule="nonzero"><path d="M24.741 23.534l-1.207 1.207-7.155-7.155v3.966h-1.724v-6.897h6.897v1.724h-3.966zM10.345 3.448v6.897H3.448V8.62h3.966L.259 1.466 1.466.259 8.62 7.414V3.448z"></path></g>
		</symbol>
	
		<symbol id="icon-gallery" viewBox="0 0 210 205">
			<defs><filter x="-10.8%" y="-14.5%" width="121.5%" height="131%" filterUnits="objectBoundingBox" id="a"><feOffset dy="10" in="SourceAlpha" result="shadowOffsetOuter1"></feOffset><feGaussianBlur stdDeviation="50" in="shadowOffsetOuter1" result="shadowBlurOuter1"></feGaussianBlur><feColorMatrix values="0 0 0 0 0 0 0 0 0 0 0 0 0 0 0 0 0 0 0.5 0" in="shadowBlurOuter1" result="shadowMatrixOuter1"></feColorMatrix><feMerge><feMergeNode in="shadowMatrixOuter1"></feMergeNode><feMergeNode in="SourceGraphic"></feMergeNode></feMerge></filter></defs><g transform="translate(80 67)" filter="url(#a)" fill="none" fill-rule="evenodd"><circle stroke="#FFF" cx="25" cy="25" r="25"></circle><path d="M36.565 35.696h-23.13A2.435 2.435 0 0 1 11 33.26V17.435A2.435 2.435 0 0 1 13.435 15h23.13A2.435 2.435 0 0 1 39 17.435V33.26a2.435 2.435 0 0 1-2.435 2.435zm1.218-18.261c0-.672-.546-1.218-1.218-1.218h-23.13c-.672 0-1.218.546-1.218 1.218V33.26c0 .672.546 1.217 1.218 1.217h23.13c.672 0 1.218-.545 1.218-1.217V17.435zM35.55 31.87l-3.855-3.855-2.203 2.202 2.03 2.03a.595.595 0 0 1-.841.84l-8.725-8.725-7.508 7.508a.595.595 0 0 1-.84-.84l7.854-7.856c.02-.029.033-.061.058-.087a.59.59 0 0 1 .436-.172.59.59 0 0 1 .435.172c.025.026.037.058.058.087l6.202 6.203 2.55-2.55c.02-.03.033-.062.058-.088a.593.593 0 0 1 .436-.171.593.593 0 0 1 .435.17c.025.027.038.06.058.088l4.203 4.203a.595.595 0 0 1-.84.841zm-7.508-9.566a2.435 2.435 0 1 1 0-4.87 2.435 2.435 0 0 1 0 4.87zm0-3.652a1.218 1.218 0 1 0 .001 2.436 1.218 1.218 0 0 0 0-2.436z" fill="#FFF" fill-rule="nonzero"></path></g>
		</symbol>
	
		<symbol id="icon-game-more" viewBox="0 0 30 12">
			<g fill="#FFF" fill-rule="evenodd"><path d="M0 0h30v2H0zM0 5h30v2H0zM0 10h30v2H0z"></path></g>
		</symbol>
	
		<symbol id="icon-instagram" viewBox="0 0 20 20">
			<path d="M2.599 0h14.868A2.512 2.512 0 0 1 20 2.528v14.869C20 18.809 18.88 20 17.467 20H2.599C1.186 20 0 18.809 0 17.397V2.528C0 1.116 1.186 0 2.599 0zm12.003 2.212a.866.866 0 0 0-.885.872v2.155c0 .496.39.867.885.867h2.261c.496 0 .925-.371.925-.867V3.084c0-.496-.43-.872-.925-.872h-2.26zm3.186 6.195h-1.775a5.84 5.84 0 0 1 .256 1.723c0 3.327-2.784 6.027-6.217 6.027-3.434 0-6.218-2.702-6.218-6.029 0-.596.09-1.19.257-1.721H2.212v8.463c0 .437.4.829.837.829h13.93c.437 0 .809-.392.809-.83V8.408zm-7.736-2.38c-2.219 0-4.018 1.742-4.018 3.892s1.799 3.893 4.018 3.893 4.017-1.743 4.017-3.893c0-2.15-1.798-3.892-4.017-3.892z" fill="#FFF" fill-rule="evenodd"></path>
		</symbol>
	
		<symbol id="icon-map" viewBox="0 0 12 17">
			<path d="M6 16.893l-.321-.393C5.464 16.214 0 9.821 0 6c0-3.321 2.714-6 6-6s6 2.714 6 6c0 3.821-5.464 10.25-5.679 10.5L6 16.893zM6 .82A5.144 5.144 0 0 0 .857 5.964c0 3 3.964 8.107 5.143 9.572C7.179 14.07 11.143 9 11.143 5.964A5.144 5.144 0 0 0 6 .821zm0 7.465A2.302 2.302 0 0 1 3.714 6 2.302 2.302 0 0 1 6 3.714 2.302 2.302 0 0 1 8.286 6 2.302 2.302 0 0 1 6 8.286zM6 4.57c-.786 0-1.429.643-1.429 1.429S5.214 7.429 6 7.429 7.429 6.786 7.429 6 6.786 4.571 6 4.571z" fill="#FFF" fill-rule="nonzero"></path>
		</symbol>
	
		<symbol id="icon-our-games" viewBox="0 0 413 459">
			<g transform="rotate(-30 129.964 324.824)" fill="#F15959" fill-rule="nonzero" opacity=".2"><path d="M322.303 189.74c9.407 0 17.033-8.299 17.033-18.537s-7.626-18.538-17.033-18.538c-9.408 0-17.034 8.3-17.034 18.538s7.626 18.538 17.034 18.538zm13.552-18.537c0 8.146-6.067 14.75-13.552 14.75-7.485 0-13.553-6.604-13.553-14.75s6.068-14.75 13.553-14.75c7.485 0 13.552 6.604 13.552 14.75zM322.303 251.534c9.407 0 17.033-8.3 17.033-18.538s-7.626-18.538-17.033-18.538c-9.408 0-17.034 8.3-17.034 18.538s7.626 18.538 17.034 18.538zm13.552-18.538c0 8.146-6.067 14.75-13.552 14.75-7.485 0-13.553-6.604-13.553-14.75s6.068-14.75 13.553-14.75c7.485 0 13.552 6.604 13.552 14.75zM371.4 202.463c0-10.238-7.626-18.538-17.034-18.538-9.407 0-17.034 8.3-17.034 18.538S344.96 221 354.366 221c9.408 0 17.034-8.3 17.034-18.538zm-4.48-5.68c2.112 5.51.964 11.862-2.908 16.091-3.872 4.23-9.705 5.5-14.775 3.22s-8.377-7.661-8.377-13.631c0-8.126 6.04-14.722 13.506-14.75 5.486-.02 10.442 3.56 12.554 9.07zM290.24 183.925c-9.408 0-17.034 8.3-17.034 18.538S280.832 221 290.24 221c9.407 0 17.033-8.3 17.033-18.538 0-4.917-1.794-9.632-4.989-13.108-3.194-3.477-7.527-5.43-12.044-5.43zm-13.46 18.47c.034-8.132 6.11-14.7 13.583-14.681 7.473.018 13.522 6.616 13.522 14.749 0 3.93-1.44 7.696-4.002 10.465-2.562 2.77-6.033 4.311-9.643 4.284-7.473-.055-13.494-6.683-13.46-14.816zM266.526 236.267c-13.65 0-24.715 12.043-24.715 26.898 0 14.856 11.065 26.898 24.715 26.898s24.716-12.042 24.716-26.898c-.026-14.844-11.077-26.87-24.716-26.898zm0 50.277c-11.736 0-21.25-10.354-21.25-23.127s9.514-23.128 21.25-23.128 21.25 10.355 21.25 23.128c-.126 12.682-9.596 22.9-21.25 22.926v.201z"></path><path d="M249.864 255.654c-2.792 7.334-1.249 15.777 3.91 21.39 5.157 5.614 12.915 7.293 19.654 4.255 6.74-3.038 11.134-10.195 11.134-18.134-.026-10.829-8.086-19.6-18.036-19.628-7.294 0-13.87 4.782-16.662 12.117zm2.113 7.46c0-8.744 6.514-15.834 14.55-15.834 8.035 0 14.548 7.09 14.548 15.834 0 8.753-6.506 15.857-14.549 15.885-8.035-.05-14.549-7.14-14.549-15.885z"></path><path d="M233.127 263.529c0 20.275 15.103 36.712 33.733 36.712 18.63 0 33.733-16.437 33.733-36.712-.025-20.264-15.113-36.685-33.733-36.713-18.63 0-33.733 16.437-33.733 36.713zm3.494.05c0-18.175 13.539-32.909 30.24-32.909 16.7 0 30.238 14.734 30.238 32.91-.051 18.143-13.567 32.83-30.239 32.858-16.7.05-30.239-14.683-30.239-32.859zM72.142 201.34c-.016 14.822 10.989 26.866 24.608 26.93 13.62.065 24.721-11.874 24.823-26.697.037-7.173-2.556-14.066-7.203-19.153-4.648-5.086-10.968-7.946-17.559-7.946-13.62.028-24.652 12.043-24.669 26.865zm24.67 23.411c-11.737 0-21.252-10.354-21.252-23.127s9.515-23.128 21.251-23.128c11.737 0 21.25 10.355 21.25 23.128-.125 12.683-9.596 22.9-21.25 22.926v.201z"></path><path d="M78.822 201.322c-.025 10.82 8 19.623 17.943 19.678 9.943.056 18.051-8.656 18.128-19.476.025-5.228-1.863-10.252-5.247-13.963-3.383-3.71-7.985-5.804-12.789-5.817-9.942 0-18.01 8.758-18.035 19.578zm4.577 6.012c-2.241-5.942-.962-12.768 3.238-17.28 4.2-4.513 10.488-5.817 15.918-3.302 5.43 2.514 8.927 8.35 8.852 14.772-.102 8.674-6.579 15.656-14.55 15.683-5.901-.052-11.218-3.932-13.458-9.873z"></path><path d="M130.925 201.736c0-20.276-15.103-36.712-33.733-36.712-18.63 0-33.733 16.436-33.733 36.712 0 20.275 15.102 36.712 33.733 36.712 18.62-.028 33.707-16.448 33.733-36.712zm-63.832-.101c.051-18.155 13.603-32.836 30.285-32.808 16.682.028 30.192 14.753 30.192 32.909-.102 18.163-13.688 32.813-30.378 32.757-16.682.068-30.15-14.703-30.099-32.858zM158.747 251.028v-20.886c-.024-1.023-.783-1.845-1.725-1.872h-18.655c-.96.028-1.726.88-1.726 1.922v20.937h-19.354c-.96.027-1.726.88-1.726 1.922v20.229c0 1.061.794 1.921 1.773 1.921h19.12v20.937c0 1.062.794 1.922 1.773 1.922h18.655c.96 0 1.747-.83 1.772-1.871V275.1h19.261c.96 0 1.747-.83 1.772-1.87V253c.027-1.042-.718-1.918-1.679-1.972h-19.26zm17.536 20.229h-19.308c-.96.027-1.726.88-1.725 1.922v20.936h-15.204V273.18c-.025-1.023-.783-1.845-1.726-1.872h-19.307v-16.486h19.307c.961 0 1.747-.83 1.772-1.871v-20.937h15.018v20.937c0 .51.186.998.519 1.359.332.36.783.562 1.253.562h19.26l.14 16.386zM241.143 186.833c-7.379 0-13.36 6.51-13.36 14.54s5.981 14.539 13.36 14.539c7.378 0 13.36-6.51 13.36-14.54s-5.982-14.54-13.36-14.54zm.046 3.786c5.457 0 9.88 4.814 9.88 10.753 0 5.94-4.423 10.754-9.88 10.754-2.629.013-5.154-1.114-7.017-3.132-1.863-2.018-2.91-4.761-2.91-7.622.046-5.939 4.47-10.753 9.927-10.753zM160.316 181.744c7.379 0 13.36-6.51 13.36-14.54s-5.981-14.54-13.36-14.54c-7.378 0-13.36 6.51-13.36 14.54 0 3.857 1.408 7.555 3.914 10.281 2.505 2.727 5.903 4.259 9.446 4.259zm9.2-18.663c1.555 4.021.724 8.667-2.104 11.76-2.828 3.092-7.092 4.018-10.794 2.343-3.703-1.674-6.108-5.617-6.09-9.98 0-5.9 4.368-10.697 9.788-10.753 4.01.01 7.643 2.61 9.2 6.63zM276.546 167.204c0-8.03-5.981-14.54-13.36-14.54-7.378 0-13.36 6.51-13.36 14.54 0 3.857 1.408 7.555 3.913 10.281 2.506 2.727 5.904 4.259 9.447 4.259 7.379 0 13.36-6.51 13.36-14.54zm-3.48.05c0 5.94-4.423 10.754-9.88 10.754-5.457 0-9.88-4.814-9.88-10.753-.013-2.86 1.023-5.609 2.877-7.636 1.854-2.028 4.375-3.168 7.003-3.168 5.457.05 9.88 4.865 9.88 10.804zM172.718 189.741c-.954.028-1.714.877-1.714 1.916v20.159c0 1.057.788 1.915 1.76 1.915h18.524c.954 0 1.735-.827 1.76-1.865v-20.26a1.996 1.996 0 0 0-.548-1.34 1.683 1.683 0 0 0-1.258-.525h-18.524zm16.81 20.16h-14.912v-16.38h14.912v16.38z"></path><path d="M331.217 370.075c9.273 19.9 18.546 40.406 30.74 47.78 4.414 3.281 9.631 5.041 14.975 5.052 9.85 1.109 19.645-2.59 26.752-10.102 11.494-12.458 17.694-29.575 17.109-47.225l-3.107-23.487c-5.424-41.316-11.359-86.42-19.89-129.806-4.034-20.557-8.346-39.599-13.4-57.68a13.602 13.602 0 0 0-3.987-4.547c-2.232-1.579-4.003-3.822-5.1-6.465-10.153-29.396-55.358-39.497-84.197-37.325-4.611.453-9.013 2.308-12.704 5.353H223.56l-4.637-48.841c-.072-.973-.82-1.72-1.715-1.717l-.557-59.196C216.631.885 215.93.077 215.03 0h-9.273c-.955.027-1.716.879-1.716 1.92v58.69c-1.498-.003-2.245.745-2.318 1.717l-4.636 48.842h-54.664c-3.69-3.046-8.092-4.901-12.703-5.354-28.839-2.172-74.183 7.93-84.198 37.326-.703 1.977-1.87 3.718-3.384 5.05l-1.206 1.061-1.53 1.364c-.81.462-1.043.699-1.252.96-.79.967-.884 1.209-.927 1.464a7.857 7.857 0 0 0-.695 1.061c-5.008 18.032-9.273 36.972-13.075 56.266-8.902 44.65-14.883 89.804-20.308 131.17l-3.106 23.74c-.586 17.65 5.615 34.767 17.108 47.225 6.206 6.61 14.504 10.371 23.182 10.506 1.128.062 2.258.062 3.385 0 5.396-.046 10.664-1.801 15.161-5.051 12.426-7.375 21.699-27.931 30.693-47.882 8.995-19.951 17.248-38.033 26.381-39.75h188.61c9.412 1.717 17.804 20.203 26.66 39.75zm70.056 39.649c-6.35 6.782-15.115 10.18-23.97 9.293-4.945.052-9.79-1.514-13.91-4.495-11.358-6.667-20.446-26.719-29.255-46.114-6.445-14.193-12.611-27.78-19.658-35.356l80.58-116.927c8.114 42.074 13.91 85.865 19.149 125.918 1.02 7.913 2.04 15.725 3.06 23.436.456 16.512-5.326 32.506-15.996 44.245zM207.518 3.788h5.795V60.61h-5.795V3.788zm-2.504 60.61h10.756l4.312 46.72h-19.38l4.312-46.72zM122.3 109.25c2.504 0 4.961 0 7.28.252 4.154.455 8.098 2.21 11.359 5.051.298.23.654.354 1.02.354h136.913c.365 0 .722-.124 1.02-.354 3.26-2.842 7.205-4.596 11.36-5.05 26.288-2.021 68.943 7.171 79.838 32.88l-4.312-2.828c-8.901-5.692-18.396-10.202-28.282-13.436-17.386-5.556-79.282-6.162-128.104-5.859-48.821.303-110.717.303-128.104 5.91-9.886 3.233-19.38 7.744-28.282 13.435l-4.312 2.829c9.876-23.436 46.271-33.184 72.606-33.184zM57.251 414.472c-4.059 2.919-8.813 4.481-13.677 4.495-8.874.93-17.67-2.473-24.017-9.294-10.65-11.711-16.431-27.665-15.995-44.144 1.02-7.71 2.055-15.557 3.106-23.537 5.24-40.407 11.035-83.894 19.149-125.968L106.073 332.7c-6.955 7.828-13.168 21.466-19.612 35.709-8.763 19.345-17.85 39.397-29.21 46.064zm58.466-87.935c-2.581.568-4.99 1.836-7.001 3.687L26.697 211.226c3.756-19.042 7.975-37.78 12.89-55.56.244-.472.558-.898.927-1.262l2.086-1.92 1.67-1.514a120.032 120.032 0 0 1 11.451-8.132c8.654-5.54 17.884-9.931 27.494-13.082 13.492-4.142 57.63-6.162 127.177-5.707 69.546-.405 113.685 1.565 127.13 5.757 9.627 3.148 18.873 7.54 27.54 13.082a119.784 119.784 0 0 1 11.453 7.98l1.669 1.465a13.122 13.122 0 0 1 2.875 2.93c4.96 17.88 9.272 36.669 12.981 55.559L312.07 330.375c-2.094-1.912-4.598-3.215-7.28-3.788l-189.072-.05z"></path></g>
		</symbol>
	
		<symbol id="icon-reddit" viewBox="0 0 20 17">
			<path d="M7.2 11.414A1.627 1.627 0 0 1 5.573 9.79c0-.895.729-1.624 1.625-1.624s1.625.729 1.625 1.624c0 .896-.729 1.625-1.625 1.625zm11.759-1.132c.024.186.037.369.037.547 0 3.379-4.042 6.128-9.011 6.128-4.97 0-9.012-2.75-9.012-6.128 0-.185.014-.376.04-.57a2.478 2.478 0 0 1-1.013-2 2.494 2.494 0 0 1 2.491-2.491c.536 0 1.058.174 1.486.493 1.545-.939 3.514-1.486 5.584-1.552L11.15.198l3.803.909A2.072 2.072 0 0 1 16.79 0c1.146 0 2.08.933 2.08 2.08 0 1.146-.934 2.08-2.08 2.08a2.084 2.084 0 0 1-2.07-1.881l-2.802-.67-1.098 3.118c1.923.122 3.748.664 5.189 1.545a2.487 2.487 0 0 1 1.5-.505A2.494 2.494 0 0 1 20 8.26a2.467 2.467 0 0 1-1.041 2.023zM1.194 8.259c0 .25.073.492.207.7.329-.697.843-1.352 1.512-1.928A1.3 1.3 0 0 0 1.195 8.26zm16.608 2.57c0-2.722-3.507-4.934-7.817-4.934-4.31 0-7.818 2.213-7.818 4.934 0 2.72 3.507 4.934 7.818 4.934 4.31 0 7.817-2.214 7.817-4.934zm-.735-3.789c.672.582 1.188 1.246 1.514 1.95.147-.215.228-.468.228-.73a1.3 1.3 0 0 0-1.742-1.22zm-1.162-4.96a.887.887 0 0 0 1.771 0 .887.887 0 0 0-1.77 0zm-2.92 10.606a.591.591 0 0 0-.422.175c-.032.031-.813.766-2.594.766-1.76 0-2.47-.735-2.471-.737a.596.596 0 0 0-.904.78c.029.032.288.327.839.607.706.36 1.56.543 2.536.543.97 0 1.833-.18 2.566-.534.569-.274.85-.56.882-.592a.596.596 0 1 0-.431-1.007zm-.018-4.521c-.897 0-1.626.729-1.626 1.624a1.627 1.627 0 0 0 3.25 0c0-.895-.729-1.624-1.624-1.624z" fill="#FFF" fill-rule="nonzero"></path>
		</symbol>
	
		<symbol id="icon-subscribe" viewBox="0 0 157 177">
			<path d="M142.598 176.8L2.149 139.167a2.142 2.142 0 0 1-1.52-2.622l24.817-92.62a2.116 2.116 0 0 1 .683-1.115 2.118 2.118 0 0 1 1.21-.509l24.698-2.79 9.939-37.093a2.142 2.142 0 0 1 2.628-1.51l93.632 25.089a2.142 2.142 0 0 1 1.52 2.621l-9.942 37.107L168.87 80.12a2.142 2.142 0 0 1 1.252 2.116 2.166 2.166 0 0 1-.14.667l-24.756 92.387a2.146 2.146 0 0 1-2.63 1.51zM5.33 135.59l136.3 36.522 23.187-86.535-79.281 29.287a2.153 2.153 0 0 1-2.403-.644L28.631 48.63l-23.3 86.96zM49.2 66.683l36.264 43.642 53.217-19.66v-.003l16.37-61.09L65.566 5.596l-9.75 36.386-.025.094L49.2 66.682h.002zm99.416 3.503l-5 18.657 19.946-7.368-14.946-11.29zM32.075 46.074l13.763 16.564 5.007-18.685-18.77 2.12zm1.605 90.121c-12.06-3.231-18.415-14.53-15.11-26.864 3.929-14.664 17.49-22.882 31.542-19.117 11.819 3.167 17.884 13.55 14.749 25.248-2.943 10.982-11.064 14.964-17.565 13.222-1.944-.52-3.58-1.767-4.485-3.42a6.569 6.569 0 0 1-.45-1.016c-2.087 1.064-4.989 1.777-8.612.806-4.35-1.165-7.85-5.721-6.12-12.174 2.462-9.189 11.971-14.655 21.197-12.183 1.45.388 3.671 1.363 3.92 1.473.526.233.938.669 1.142 1.208.204.539.18 1.136-.065 1.656l-7.339 15.646c-.304 1.014-.272 1.869.096 2.54.344.627 1.009 1.113 1.823 1.33 4.441 1.19 10.094-1.93 12.31-10.2 2.483-9.268-2.33-17.493-11.707-20.005-13.46-3.607-23.411 5.367-26.286 16.096-3.018 11.262 3.788 19.4 12.07 21.62 4.014 1.075 7.295 1.219 10.638.465a2.153 2.153 0 0 1 2.57 1.614 2.136 2.136 0 0 1-1.614 2.559c-4.063.92-7.98.762-12.704-.504zm14.039-31.365c-7.774-2.083-14.327 3.135-15.943 9.164-.898 3.354.367 6.202 3.08 6.929 4.461 1.195 7.2-1.51 7.79-2.175l6.332-13.496c-.462-.172-.912-.329-1.26-.422zm79.252-21.418L67.71 67.533a2.142 2.142 0 0 1-1.52-2.621 2.142 2.142 0 0 1 2.627-1.51l59.26 15.879a2.142 2.142 0 0 1 1.521 2.621 2.143 2.143 0 0 1-2.627 1.51zm4.903-18.297l-59.261-15.88a2.142 2.142 0 0 1-1.52-2.621 2.142 2.142 0 0 1 2.627-1.51l59.26 15.879a2.142 2.142 0 0 1 1.521 2.621 2.143 2.143 0 0 1-2.627 1.51zm5.06-18.888l-59.26-15.88a2.142 2.142 0 0 1-1.52-2.62 2.142 2.142 0 0 1 2.627-1.511l59.26 15.879a2.142 2.142 0 0 1 1.521 2.622 2.143 2.143 0 0 1-2.627 1.51z" fill="#F15959" fill-rule="nonzero"></path>
		</symbol>
	
		<symbol id="icon-tag" viewBox="0 0 15 15">
			<path d="M.347.002a.385.385 0 0 0-.228.66l.655.655v5.995c0 .101.042.199.114.27l3.502 3.52c.88.883 1.76 1.772 2.428 2.444l.81.817.24.24c.057.057.106.113.085.09a.962.962 0 0 0 .703.307.963.963 0 0 0 .72-.33c-.025.029-.004.005.007-.006.01-.012.027-.027.048-.048.041-.042.105-.1.18-.175.15-.15.355-.367.607-.618.503-.504 1.17-1.164 1.832-1.826l2.632-2.631.012-.012A.955.955 0 0 0 15 8.657a.948.948 0 0 0-.342-.727l-.006-.006c-.015-.013-.033-.033-.06-.06-.055-.053-.136-.13-.235-.228l-.186-.186.78-2.865.007-.018h-.006a.97.97 0 0 0-.078-.763c-.154-.267-.417-.393-.631-.45l-5.72-1.538h-.017L7.58.89a.385.385 0 0 0-.27-.114H1.32L.66.116A.385.385 0 0 0 .347.002zM2.56 2h5.19a5409.588 5409.588 0 0 0 5.995 5.97c.342.341.627.63.83.832.102.1.184.178.24.234.029.027.052.051.068.067l.019.019.03.024c.046.038.068.08.068.142a.196.196 0 0 1-.068.148.394.394 0 0 0-.012.012s-1.35 1.345-2.708 2.702l-1.878 1.877-.628.628-.184.185c-.022.022-.036.042-.05.055-.012.014-.006.003-.036.037a.187.187 0 0 1-.29 0c-.033-.036-.046-.046-.104-.104-.058-.06-.144-.143-.247-.247l-.83-.837-2.493-2.505L2 7.75V2.554l.905.905a1.157 1.157 0 0 0-.117.51c0 .649.534 1.183 1.182 1.183.648 0 1.182-.534 1.182-1.182 0-.648-.534-1.182-1.182-1.182-.182 0-.35.042-.505.117L2.56 2zM10 3l4.8 1.219c.108.027.151.053.175.092.032.052.03.108.013.16a.37.37 0 0 0 0 .018L14.26 7c-.721-.678-1.679-1.571-2.633-2.469L10 3zM3.5 3c.282 0 .5.218.5.5 0 .282-.218.5-.5.5a.493.493 0 0 1-.5-.5c0-.282.218-.5.5-.5z" fill="#F15959" fill-rule="nonzero"></path>
		</symbol>
	
		<symbol id="icon-trailer" viewBox="0 0 15 13">
			<path d="M2.647 0C1.31 0 .221 1.107.221 2.466.22 3.825 1.31 4.93 2.647 4.93c1.338 0 2.427-1.106 2.427-2.465C5.074 1.106 3.984 0 2.647 0zm5.735 0C7.045 0 5.956 1.107 5.956 2.466c0 1.359 1.089 2.465 2.426 2.465 1.338 0 2.427-1.106 2.427-2.465C10.809 1.106 9.719 0 8.382 0zM2.647.448c1.1 0 1.985.9 1.985 2.018 0 1.116-.886 2.017-1.985 2.017-1.099 0-1.985-.9-1.985-2.017S1.548.448 2.647.448zm5.735 0c1.1 0 1.986.9 1.986 2.018 0 1.116-.887 2.017-1.986 2.017s-1.985-.9-1.985-2.017S7.283.448 8.382.448zM.221 5.828A.231.231 0 0 0 0 6.052v6.724c0 .117.105.224.22.224H10.81c.115 0 .22-.107.22-.224V11.27l3.688 1.044c.13.038.28-.074.283-.21v-5.38c-.013-.199-.143-.246-.283-.217L11.03 7.551v-1.5a.22.22 0 0 0-.22-.223H.22zm.22.448h10.147v6.276H.441V6.276zm14.118.735v4.798l-3.53-1.001V8.013l3.53-1.002z" fill="#FFF" fill-rule="nonzero"></path>
		</symbol>
	
		<symbol id="icon-twitter" viewBox="0 0 20 17">
			<path d="M20 1.924a8.163 8.163 0 0 1-2.357.646A4.11 4.11 0 0 0 19.448.3c-.793.47-1.671.812-2.606.996A4.103 4.103 0 0 0 9.85 5.038 11.65 11.65 0 0 1 1.392.751a4.082 4.082 0 0 0-.556 2.063c0 1.424.724 2.68 1.825 3.415a4.091 4.091 0 0 1-1.858-.513v.052A4.106 4.106 0 0 0 4.094 9.79a4.124 4.124 0 0 1-1.853.07 4.108 4.108 0 0 0 3.833 2.85A8.231 8.231 0 0 1 0 14.41a11.611 11.611 0 0 0 6.29 1.843c7.548 0 11.674-6.252 11.674-11.674 0-.178-.003-.356-.01-.532A8.312 8.312 0 0 0 20 1.924z" fill="#FFF" fill-rule="nonzero"></path>
		</symbol>
	
		<symbol id="icon-unfolding" viewBox="0 0 25 25">
			<g fill="#FFF" fill-rule="nonzero"><path d="M18.103 0H25v6.897h-1.724V2.93l-7.155 7.155-1.207-1.207 7.155-7.155h-3.966zM8.88 14.914l1.206 1.207-7.155 7.155h3.966V25H0v-6.897h1.724v3.966z"></path></g>
		</symbol>
	
		<symbol id="icon-youtube" viewBox="0 0 20 20">
			<g fill="#FFF" fill-rule="nonzero"><path d="M16.364 9.284H3.913a3.585 3.585 0 0 0-3.584 3.585v2.88a3.584 3.584 0 0 0 3.584 3.585h12.451a3.585 3.585 0 0 0 3.584-3.585v-2.88a3.585 3.585 0 0 0-3.584-3.585zM6.53 11.526H5.37v5.752H4.253v-5.752H3.096v-.978h3.433v.978zm3.27 5.752h-.992v-.544a2.122 2.122 0 0 1-.573.459c-.198.108-.39.158-.576.158-.23 0-.402-.073-.52-.222-.114-.148-.173-.368-.173-.665v-4.151h.992v3.809c0 .118.022.202.061.254.043.054.111.08.204.08a.564.564 0 0 0 .277-.105 1.34 1.34 0 0 0 .308-.267v-3.772h.992v4.966zm3.601-1.025c0 .351-.078.62-.233.809-.155.188-.381.28-.675.28-.195 0-.368-.035-.52-.108a1.275 1.275 0 0 1-.424-.336v.38h-1.004v-6.73h1.004v2.168c.135-.15.277-.267.425-.345a.974.974 0 0 1 .459-.118c.314 0 .553.105.718.317.167.211.25.521.25.928v2.755zm3.442-1.338h-1.899v.936c0 .26.032.442.097.543.066.102.178.152.337.152.165 0 .279-.043.345-.129.064-.086.098-.274.098-.566v-.226h1.022v.255c0 .508-.124.892-.375 1.15-.247.257-.619.384-1.113.384-.445 0-.796-.135-1.05-.408-.255-.271-.384-.648-.384-1.126v-2.23c0-.43.141-.783.422-1.054.28-.27.642-.406 1.086-.406.455 0 .804.126 1.048.377s.366.611.366 1.082v1.266z"></path><path d="M15.386 13.058c-.158 0-.27.045-.34.138-.07.087-.103.236-.103.444v.502h.877v-.502c0-.208-.035-.358-.104-.444-.067-.093-.179-.138-.33-.138zM11.964 13.042a.489.489 0 0 0-.21.048.71.71 0 0 0-.205.152v3.093c.08.08.158.141.235.177a.583.583 0 0 0 .24.053c.122 0 .21-.035.268-.107.056-.07.085-.182.085-.341v-2.565c0-.168-.033-.295-.104-.382a.384.384 0 0 0-.31-.128zM5.543 7.56h1.258V4.482L8.265.144H6.987l-.779 2.964H6.13L5.312.144H4.045l1.498 4.478zM9.97 7.697c.507 0 .906-.133 1.196-.4.288-.267.433-.632.433-1.1V3.37c0-.416-.148-.759-.442-1.023-.296-.264-.675-.397-1.137-.397-.508 0-.913.126-1.214.377-.3.25-.45.587-.45 1.012v2.835c0 .465.146.833.44 1.11.293.274.685.412 1.173.412zm-.464-4.399c0-.118.043-.214.126-.29a.495.495 0 0 1 .334-.109c.148 0 .267.036.358.11.091.075.136.17.136.29v2.98a.45.45 0 0 1-.134.345.503.503 0 0 1-.36.126c-.148 0-.262-.04-.342-.124a.48.48 0 0 1-.118-.348v-2.98zM13.286 7.64c.21 0 .425-.06.647-.176.225-.117.44-.288.644-.51v.606h1.117V2.09h-1.117v4.152c-.104.118-.22.216-.344.294-.126.076-.23.115-.312.115-.105 0-.182-.029-.227-.089-.046-.057-.072-.15-.072-.279V2.09h-1.116V6.66c0 .326.066.57.195.731.132.164.325.247.585.247z"></path></g>
		</symbol>
	
</svg>
