<svg width="210px" height="205px" viewBox="0 0 210 205" version="1.1" xmlns="http://www.w3.org/2000/svg" xmlns:xlink="http://www.w3.org/1999/xlink">
    <!-- Generator: Sketch 48.1 (47250) - http://www.bohemiancoding.com/sketch -->
    <desc>Created with Sketch.</desc>
    <defs>
        <filter x="-10.8%" y="-14.5%" width="121.5%" height="131.0%" filterUnits="objectBoundingBox" id="filter-1">
            <feOffset dx="0" dy="10" in="SourceAlpha" result="shadowOffsetOuter1"></feOffset>
            <feGaussianBlur stdDeviation="50" in="shadowOffsetOuter1" result="shadowBlurOuter1"></feGaussianBlur>
            <feColorMatrix values="0 0 0 0 0   0 0 0 0 0   0 0 0 0 0  0 0 0 0.5 0" type="matrix" in="shadowBlurOuter1" result="shadowMatrixOuter1"></feColorMatrix>
            <feMerge>
                <feMergeNode in="shadowMatrixOuter1"></feMergeNode>
                <feMergeNode in="SourceGraphic"></feMergeNode>
            </feMerge>
        </filter>
    </defs>
    <g id="Game" stroke="none" stroke-width="1" fill="none" fill-rule="evenodd">
        <g id="Game(Desktop)" transform="translate(-1220.000000, -868.000000)">
            <g id="Main-banner-game" filter="url(#filter-1)">
                <g id="game-static">
                    <g id="thumb">
                        <g id="gallery" transform="translate(1300.000000, 935.000000)">
                            <circle id="Oval-2" stroke="#FFFFFF" cx="25" cy="25" r="25"></circle>
                            <path d="M36.5652174,35.6956522 L13.4347826,35.6956522 C12.0901739,35.6956522 11,34.6054783 11,33.2608696 L11,17.4347826 C11,16.0901739 12.0901739,15 13.4347826,15 L36.5652174,15 C37.9098261,15 39,16.0901739 39,17.4347826 L39,33.2608696 C39,34.6054783 37.9098261,35.6956522 36.5652174,35.6956522 Z M37.7826087,17.4347826 C37.7826087,16.7627826 37.2372174,16.2173913 36.5652174,16.2173913 L13.4347826,16.2173913 C12.7627826,16.2173913 12.2173913,16.7627826 12.2173913,17.4347826 L12.2173913,33.2608696 C12.2173913,33.9328696 12.7627826,34.4782609 13.4347826,34.4782609 L36.5652174,34.4782609 C37.2372174,34.4782609 37.7826087,33.9328696 37.7826087,33.2608696 L37.7826087,17.4347826 Z M35.5511304,31.87 L31.6956522,28.0145217 L29.4927826,30.2173913 L31.5221739,32.2467826 C31.754087,32.4786957 31.754087,32.8548696 31.5221739,33.0873913 C31.2896522,33.3193043 30.9134783,33.3193043 30.6815652,33.0873913 L21.9565217,24.3623478 L14.4488696,31.87 C14.2169565,32.101913 13.8407826,32.101913 13.6082609,31.87 C13.3763478,31.6374783 13.3763478,31.2613043 13.6082609,31.0293913 L21.4634783,23.1741739 C21.4829565,23.1449565 21.4957391,23.1126957 21.5213043,23.0865217 C21.6412174,22.9666087 21.7994783,22.9118261 21.9565217,22.9154783 C22.1135652,22.9118261 22.2718261,22.9666087 22.3917391,23.0865217 C22.4173043,23.1126957 22.4294783,23.1449565 22.4495652,23.1741739 L28.6521739,29.3767826 L31.2026087,26.8263478 C31.2226957,26.7977391 31.2348696,26.7648696 31.2604348,26.7386957 C31.3803478,26.6193913 31.5386087,26.564 31.6956522,26.5676522 C31.8526957,26.564 32.0109565,26.6193913 32.1308696,26.7386957 C32.1564348,26.7648696 32.1686087,26.7977391 32.1886957,26.8263478 L36.3917391,31.0293913 C36.6236522,31.2613043 36.6236522,31.6374783 36.3917391,31.87 C36.1592174,32.101913 35.7830435,32.101913 35.5511304,31.87 Z M28.0434783,22.3043478 C26.6988696,22.3043478 25.6086957,21.2141739 25.6086957,19.8695652 C25.6086957,18.5249565 26.6988696,17.4347826 28.0434783,17.4347826 C29.388087,17.4347826 30.4782609,18.5249565 30.4782609,19.8695652 C30.4782609,21.2141739 29.388087,22.3043478 28.0434783,22.3043478 Z M28.0434783,18.6521739 C27.3714783,18.6521739 26.826087,19.1975652 26.826087,19.8695652 C26.826087,20.5415652 27.3714783,21.0869565 28.0434783,21.0869565 C28.7154783,21.0869565 29.2608696,20.5415652 29.2608696,19.8695652 C29.2608696,19.1975652 28.7154783,18.6521739 28.0434783,18.6521739 Z" id="Shape" fill="#FFFFFF" fill-rule="nonzero"></path>
                        </g>
                    </g>
                </g>
            </g>
        </g>
    </g>
</svg>