<svg width="12px" height="17px" viewBox="0 0 12 17" version="1.1" xmlns="http://www.w3.org/2000/svg" xmlns:xlink="http://www.w3.org/1999/xlink">
    <!-- Generator: Sketch 48.1 (47250) - http://www.bohemiancoding.com/sketch -->
    <desc>Created with Sketch.</desc>
    <defs></defs>
    <g id="About-Us" stroke="none" stroke-width="1" fill="none" fill-rule="evenodd">
        <g id="About-Us--v2(Desktop)" transform="translate(-155.000000, -3354.000000)" fill="#FFFFFF" fill-rule="nonzero">
            <g id="Team" transform="translate(0.000000, 2626.000000)">
                <g id="item" transform="translate(135.000000, 209.000000)">
                    <g id="address" transform="translate(20.000000, 519.000000)">
                        <path d="M6,16.8928571 L5.67857143,16.5 C5.46428571,16.2142857 0,9.82142857 0,6 C0,2.67857143 2.71428571,0 6,0 C9.28571429,0 12,2.71428571 12,6 C12,9.82142857 6.53571429,16.25 6.32142857,16.5 L6,16.8928571 Z M6,0.821428571 C3.14285714,0.821428571 0.857142857,3.14285714 0.857142857,5.96428571 C0.857142857,8.96428571 4.82142857,14.0714286 6,15.5357143 C7.17857143,14.0714286 11.1428571,9 11.1428571,5.96428571 C11.1428571,3.14285714 8.85714286,0.821428571 6,0.821428571 Z M6,8.28571429 C4.75,8.28571429 3.71428571,7.25 3.71428571,6 C3.71428571,4.75 4.75,3.71428571 6,3.71428571 C7.25,3.71428571 8.28571429,4.75 8.28571429,6 C8.28571429,7.25 7.25,8.28571429 6,8.28571429 Z M6,4.57142857 C5.21428571,4.57142857 4.57142857,5.21428571 4.57142857,6 C4.57142857,6.78571429 5.21428571,7.42857143 6,7.42857143 C6.78571429,7.42857143 7.42857143,6.78571429 7.42857143,6 C7.42857143,5.21428571 6.78571429,4.57142857 6,4.57142857 Z" id="Fill-55"></path>
                    </g>
                </g>
            </g>
        </g>
    </g>
</svg>