<svg width="413px" height="459px" viewBox="0 0 413 459" version="1.1" xmlns="http://www.w3.org/2000/svg" xmlns:xlink="http://www.w3.org/1999/xlink">
    <!-- Generator: Sketch 48.1 (47250) - http://www.bohemiancoding.com/sketch -->
    <desc>Created with Sketch.</desc>
    <defs></defs>
    <g id="Home" stroke="none" stroke-width="1" fill="none" fill-rule="evenodd" opacity="0.200000003">
        <g id="Home(Desktop)" transform="translate(0.000000, -1563.000000)" fill="#F15959" fill-rule="nonzero">
            <g id="Our-games" transform="translate(-145.000000, 1461.000000)">
                <g id="icon-our-games" transform="translate(288.298347, 288.847386) rotate(-30.000000) translate(-288.298347, -288.847386) translate(77.798347, 76.847386)">
                    <path d="M322.302826,189.740705 C331.710235,189.740705 339.336447,181.441011 339.336447,171.20282 C339.336447,160.964629 331.710235,152.664935 322.302826,152.664935 C312.895417,152.664935 305.269205,160.964629 305.269205,171.20282 C305.269205,181.441011 312.895417,189.740705 322.302826,189.740705 Z M335.855461,171.20282 C335.855461,179.348738 329.78774,185.952309 322.302826,185.952309 C314.817912,185.952309 308.75019,179.348738 308.75019,171.20282 C308.75019,163.056902 314.817912,156.453331 322.302826,156.453331 C329.78774,156.453331 335.855461,163.056902 335.855461,171.20282 Z" id="Shape"></path>
                    <path d="M322.302826,251.533655 C331.710235,251.533655 339.336447,243.233961 339.336447,232.99577 C339.336447,222.757579 331.710235,214.457885 322.302826,214.457885 C312.895417,214.457885 305.269205,222.757579 305.269205,232.99577 C305.269205,243.233961 312.895417,251.533655 322.302826,251.533655 Z M335.855461,232.99577 C335.855461,241.141688 329.78774,247.745259 322.302826,247.745259 C314.817912,247.745259 308.75019,241.141688 308.75019,232.99577 C308.75019,224.849852 314.817912,218.246281 322.302826,218.246281 C329.78774,218.246281 335.855461,224.849852 335.855461,232.99577 Z" id="Shape"></path>
                    <path d="M371.399733,202.462783 C371.399733,192.224592 363.773521,183.924898 354.366112,183.924898 C344.958703,183.924898 337.332491,192.224592 337.332491,202.462783 C337.332491,212.700974 344.958703,221.000668 354.366112,221.000668 C363.773521,221.000668 371.399733,212.700974 371.399733,202.462783 Z M366.920158,196.78331 C369.03248,202.293166 367.884458,208.645451 364.012109,212.874255 C360.13976,217.10306 354.306906,218.374249 349.236933,216.0943 C344.16696,213.81435 340.859922,208.432983 340.85989,202.462783 C340.859846,194.336551 346.89933,187.741124 354.366112,187.713294 C359.851826,187.692848 364.807836,191.273454 366.920158,196.78331 Z" id="Shape"></path>
                    <path d="M290.239539,183.924898 C280.83213,183.924898 273.205919,192.224592 273.205919,202.462783 C273.205919,212.700974 280.83213,221.000668 290.239539,221.000668 C299.646948,221.000668 307.27316,212.700974 307.27316,202.462783 C307.27316,197.54623 305.478552,192.831047 302.284128,189.354519 C299.089705,185.877991 294.757137,183.924898 290.239539,183.924898 Z M276.779871,202.395895 C276.813935,194.263254 282.890324,187.695237 290.363096,187.713678 C297.835869,187.732119 303.884826,194.330058 303.885001,202.462783 C303.885086,206.392157 302.444488,210.159139 299.882764,212.928127 C297.321039,215.697115 293.849978,217.239185 290.239539,217.212272 C282.766923,217.156568 276.745807,210.528535 276.779871,202.395895 Z" id="Shape"></path>
                    <path d="M266.526067,236.267161 C252.876101,236.267161 241.810617,248.309854 241.810617,263.165269 C241.810617,278.020684 252.876101,290.063377 266.526067,290.063377 C280.176033,290.063377 291.241517,278.020684 291.241517,263.165269 C291.216094,248.32133 280.165489,236.29483 266.526067,236.267161 Z M266.526067,286.543998 C254.789648,286.543998 245.2754,276.189533 245.2754,263.416653 C245.2754,250.643773 254.789648,240.289308 266.526067,240.289308 C278.262487,240.289308 287.776734,250.643773 287.776734,263.416653 C287.650358,276.099456 278.180378,286.316123 266.526067,286.342891 L266.526067,286.543998 Z" id="Shape"></path>
                    <path d="M249.863854,255.653648 C247.072327,262.988152 248.615354,271.430532 253.773423,277.044118 C258.931493,282.657704 266.688812,284.336998 273.428155,281.298947 C280.167498,278.260896 284.561666,271.103792 284.561666,263.164982 C284.53612,252.33624 276.476371,243.564722 266.526331,243.53692 C259.231719,243.53692 252.655381,248.319144 249.863854,255.653648 Z M251.977208,263.114394 C251.977208,254.36953 258.491072,247.280417 266.526331,247.280417 C274.56159,247.280417 281.075454,254.36953 281.075454,263.114394 C281.075495,271.86748 274.569103,278.971084 266.526331,278.99896 C258.491072,278.948372 251.977208,271.859259 251.977208,263.114394 Z" id="Shape"></path>
                    <path d="M233.126811,263.528757 C233.126811,283.804391 248.229701,300.241039 266.86006,300.241039 C285.490419,300.241039 300.593309,283.804391 300.593309,263.528757 C300.567644,243.264704 285.479778,226.844406 266.86006,226.816475 C248.229701,226.816475 233.126811,243.253124 233.126811,263.528757 Z M236.621277,263.579465 C236.621277,245.404207 250.159641,230.67025 266.86006,230.67025 C283.560478,230.67025 297.098843,245.404207 297.098843,263.579465 C297.047565,281.723337 283.5317,296.410143 266.86006,296.437971 C250.159641,296.488679 236.621277,281.754722 236.621277,263.579465 Z" id="Shape"></path>
                    <path d="M72.1424132,201.339259 C72.1256868,216.161857 83.130636,228.205639 96.7504016,228.270166 C110.370167,228.334693 121.47105,216.395642 121.572905,201.573448 C121.609797,194.400189 119.017268,187.506944 114.369525,182.420469 C109.721783,177.333993 103.402428,174.474099 96.8111071,174.474212 C83.1912369,174.502332 72.1591396,186.516661 72.1424132,201.339259 Z M96.8111071,224.751088 C85.0746159,224.751088 75.5603099,214.396615 75.5603099,201.623725 C75.5603099,188.850835 85.0746159,178.496362 96.8111071,178.496362 C108.547598,178.496362 118.061904,188.850835 118.061904,201.623725 C117.935527,214.306538 108.465489,224.523213 96.8111071,224.549981 L96.8111071,224.751088 Z" id="Shape"></path>
                    <path d="M78.8223057,201.322119 C78.7968782,212.142692 86.8226876,220.944734 96.7652058,221.000403 C106.707724,221.056071 114.816327,212.344367 114.893203,201.524082 C114.917917,196.296151 113.030126,191.272387 109.646424,187.561424 C106.262723,183.85046 101.661252,181.757341 96.8574553,181.74397 C86.9148055,181.744294 78.8477332,190.501545 78.8223057,201.322119 Z M83.3986398,207.33355 C81.1579907,201.391832 82.4372407,194.565676 86.6369965,190.053483 C90.8367523,185.541289 97.124983,184.236986 102.555335,186.751706 C107.985687,189.266425 111.48233,195.101966 111.406911,201.524082 C111.305409,210.19822 104.828402,217.1796 96.8574553,217.206523 C90.9559327,217.15541 85.6392889,213.275268 83.3986398,207.33355 Z" id="Shape"></path>
                    <path d="M130.925086,201.735807 C130.925086,181.460174 115.822196,165.023525 97.1918366,165.023525 C78.5614775,165.023525 63.4585875,181.460174 63.4585875,201.735807 C63.4585875,222.011441 78.5614775,238.448089 97.1918366,238.448089 C115.811555,238.420158 130.899421,221.99986 130.925086,201.735807 Z M67.0929758,201.634861 C67.1443254,183.479535 80.6958288,168.799138 97.3779929,168.826983 C114.060157,168.854828 127.57022,183.580395 127.570398,201.735807 C127.46777,219.899438 113.881808,234.549131 97.1918366,234.492899 C80.5098311,234.561098 67.0416262,219.790186 67.0929758,201.634861 Z" id="Shape"></path>
                    <path d="M158.747294,251.027933 L158.747294,230.141599 C158.722796,229.119385 157.964396,228.296991 157.021724,228.270427 L138.366923,228.270427 C137.40642,228.297845 136.641021,229.150261 136.641354,230.192172 L136.641354,251.129077 L117.286997,251.129077 C116.326495,251.156496 115.561095,252.008912 115.561428,253.050822 L115.561428,273.279716 C115.561428,274.341066 116.354872,275.201461 117.333634,275.201461 L136.454806,275.201461 L136.454806,296.138366 C136.454806,297.199717 137.248249,298.060111 138.227012,298.060111 L156.881813,298.060111 C157.842649,298.060472 158.628735,297.230488 158.65402,296.188939 L158.65402,275.100317 L177.915102,275.100317 C178.875937,275.100677 179.662023,274.270693 179.687308,273.229144 L179.687308,253.00025 C179.713932,251.957705 178.968852,251.082425 178.008376,251.027933 L158.747294,251.027933 Z M176.282807,271.256827 L156.975087,271.256827 C156.014585,271.284245 155.249186,272.136661 155.249518,273.178572 L155.249518,294.115477 L140.045855,294.115477 L140.045855,273.178572 C140.021358,272.156357 139.262958,271.333963 138.320286,271.307399 L119.012566,271.307399 L119.012566,254.82085 L138.320286,254.82085 C139.281121,254.821211 140.067207,253.991227 140.092492,252.949678 L140.092492,232.012772 L155.109607,232.012772 L155.109607,252.949678 C155.109607,253.459356 155.296321,253.948159 155.628674,254.308556 C155.961028,254.668953 156.411795,254.871422 156.881813,254.871422 L176.142896,254.871422 L176.282807,271.256827 Z" id="Shape"></path>
                    <path d="M241.142632,186.832802 C233.764272,186.832802 227.78293,193.342365 227.78293,201.372319 C227.78293,209.402273 233.764272,215.911837 241.142632,215.911837 C248.520992,215.911837 254.502335,209.402273 254.502335,201.372319 C254.502335,193.342365 248.520992,186.832802 241.142632,186.832802 Z M241.18902,190.619134 C246.645932,190.619134 251.069634,195.433499 251.069634,201.372319 C251.069634,207.311139 246.645932,212.125504 241.18902,212.125504 C238.56049,212.138935 236.035384,211.011945 234.172365,208.993874 C232.309345,206.975803 231.26199,204.23301 231.262019,201.372319 C231.308407,195.433499 235.732108,190.619134 241.18902,190.619134 Z" id="Shape"></path>
                    <path d="M160.316431,181.74397 C167.694791,181.74397 173.676134,175.234407 173.676134,167.204453 C173.676134,159.174499 167.694791,152.664935 160.316431,152.664935 C152.938071,152.664935 146.956729,159.174499 146.956729,167.204453 C146.956729,171.060573 148.364265,174.758756 150.869695,177.485444 C153.375125,180.212133 156.773218,181.74397 160.316431,181.74397 Z M169.515238,163.081138 C171.071119,167.102143 170.240295,171.747733 167.412246,174.840117 C164.584198,177.932502 160.319552,178.858652 156.617518,177.1844 C152.915485,175.510148 150.509949,171.567396 150.528594,167.204453 C150.528355,161.304841 154.895785,156.506663 160.316431,156.451268 C164.325209,156.460832 167.959358,159.060134 169.515238,163.081138 Z" id="Shape"></path>
                    <path d="M276.545844,167.204453 C276.545844,159.174499 270.564502,152.664935 263.186142,152.664935 C255.807782,152.664935 249.826439,159.174499 249.826439,167.204453 C249.826439,171.060573 251.233975,174.758756 253.739405,177.485444 C256.244836,180.212133 259.642928,181.74397 263.186142,181.74397 C270.564502,181.74397 276.545844,175.234407 276.545844,167.204453 Z M273.066755,167.254937 C273.066755,173.193757 268.643054,178.008122 263.186142,178.008122 C257.72923,178.008122 253.305528,173.193757 253.305528,167.254937 C253.293188,164.394278 254.328727,161.646176 256.183041,159.618631 C258.037355,157.591085 260.557583,156.451236 263.186142,156.451268 C268.643054,156.501752 273.066755,161.316117 273.066755,167.254937 Z" id="Shape"></path>
                    <path d="M172.71766,189.741386 C171.763894,189.76871 171.003863,190.618192 171.004194,191.656516 L171.004194,211.815779 C171.004194,212.873476 171.792072,213.730909 172.76397,213.730909 L191.287927,213.730909 C192.242023,213.731269 193.022595,212.904142 193.047703,211.866177 L193.047703,191.606118 C193.035581,191.098135 192.838447,190.616221 192.499704,190.266479 C192.160961,189.916736 191.708384,189.727842 191.241617,189.741386 L172.71766,189.741386 Z M189.528151,209.900649 L174.616365,209.900649 L174.616365,193.521248 L189.528151,193.521248 L189.528151,209.900649 Z" id="Shape"></path>
                    <path d="M331.217072,370.074782 C340.4899,389.975077 349.762727,410.481473 361.956494,417.855694 C366.370876,421.136305 371.588383,422.896018 376.93211,422.906531 C386.782068,424.015589 396.577314,420.316876 403.684217,412.804858 C415.17753,400.347153 421.378429,383.230413 420.792583,365.579538 C419.772572,357.868594 418.737106,350.039798 417.686186,342.093148 C412.261582,300.777307 406.326973,255.673338 397.795972,212.286653 C393.762292,191.729749 389.450427,172.688096 384.396736,154.606102 C383.400136,152.781991 382.036857,151.22778 380.409421,150.060349 C378.176522,148.481397 376.406449,146.237569 375.309366,143.595278 C365.15562,114.199411 319.950587,104.097738 291.112095,106.269598 C286.500718,106.722515 282.098894,108.577623 278.408322,111.623484 L223.559549,111.623484 L218.923135,62.7818963 C218.850518,61.8093786 218.103328,61.0613997 217.207662,61.0646119 L216.651293,1.86880946 C216.630315,0.884718312 215.929336,0.0774470434 215.028548,0 L205.755721,0 C204.800838,0.0273840038 204.039917,0.878723373 204.040248,1.91931783 L204.040248,60.6100366 C202.541848,60.6068245 201.794658,61.3548033 201.722041,62.327321 L197.085627,111.168909 L142.422311,111.168909 C138.731738,108.123048 134.329914,106.26794 129.718538,105.815022 C100.880045,103.643163 55.5359203,113.744835 45.521267,143.140703 C44.8179865,145.117811 43.650959,146.859375 42.136685,148.19154 L40.9312175,149.252215 L39.401201,150.615941 C38.5913679,151.077588 38.3583208,151.314541 38.1493693,151.5756 C37.3596482,152.54298 37.2645335,152.784752 37.2220866,153.040342 C36.9636039,153.372226 36.7309771,153.727014 36.5266246,154.101018 C31.5192979,172.132504 27.2537974,191.07314 23.4519383,210.367335 C14.5500242,255.016729 8.56905064,300.171206 3.14444674,341.537556 L0.0380496328,365.276487 C-0.547796624,382.927363 5.65310256,400.044103 17.1464158,412.501808 C23.3515248,419.112084 31.6504909,422.873042 40.3284837,423.007547 C41.4559397,423.070417 42.5856097,423.070417 43.7130657,423.007547 C49.1094922,422.961592 54.3771434,421.2067 58.8741381,417.956711 C71.2997265,410.58249 80.5725537,390.025586 89.5671961,370.074782 C98.5618384,350.123978 106.814655,332.041984 115.948389,330.3247 L304.557694,330.3247 C313.969614,332.041984 322.361522,350.528045 331.217072,370.074782 Z M401.273282,409.723848 C394.923798,416.50629 386.158232,419.904799 377.303023,419.017387 C372.358179,419.068786 367.512903,417.502871 363.393783,414.522142 C352.034569,407.855038 342.947199,387.803218 334.138013,368.408006 C327.693398,354.215156 321.526968,340.628406 314.479619,333.052151 L395.060488,216.125289 C403.174211,258.198756 408.969728,301.989507 414.208876,342.04264 C415.228887,349.955617 416.248898,357.767577 417.268909,365.478521 C417.724985,381.991132 411.942996,397.984628 401.273282,409.723848 Z M207.517558,3.78812729 L213.313075,3.78812729 L213.313075,60.6100366 L207.517558,60.6100366 L207.517558,3.78812729 Z M205.013894,64.3981639 L215.770374,64.3981639 L220.082239,111.1184 L200.70203,111.1184 L205.013894,64.3981639 Z M122.300276,109.249591 C124.803939,109.249591 127.261239,109.249591 129.579445,109.502133 C133.733677,109.957428 137.678475,111.711469 140.938659,114.552969 C141.236776,114.783209 141.593236,114.906766 141.95867,114.906528 L278.871963,114.906528 C279.237397,114.906766 279.593857,114.783209 279.891974,114.552969 C283.152158,111.711469 287.096956,109.957428 291.251187,109.502133 C317.539652,107.481798 360.194657,116.674321 371.090229,142.383078 L366.778365,139.554609 C357.876783,133.863043 348.381885,129.352557 338.496242,126.119385 C321.109691,120.563465 259.213569,119.957364 210.392134,120.260414 C161.570699,120.563465 99.6745777,120.563465 82.2880267,126.169893 C72.4023839,129.403066 62.9074853,133.913551 54.0059038,139.605118 L49.6940392,142.433586 C59.5696001,118.997705 95.9654468,109.249591 122.300276,109.249591 Z M57.2513933,414.471634 C53.1920815,417.390717 48.437918,418.953229 43.5739732,418.966878 C34.6999464,419.897791 25.903837,416.494024 19.5573508,409.673339 C8.90666095,397.961872 3.1257876,382.007969 3.56172396,365.529029 C4.58173495,357.818086 5.61720065,349.972453 6.66812107,341.992132 C11.9072684,301.585441 17.7027854,258.097739 25.8165092,216.024272 L106.072828,332.698593 C99.1182081,340.527389 92.9054138,354.164647 86.460799,368.408006 C77.6979773,387.752709 68.6106066,407.80453 57.2513933,414.471634 Z M115.716569,326.536572 C113.135612,327.105322 110.727825,328.373398 108.715584,330.223683 L26.6974278,211.225978 C30.4529228,192.184324 34.6720592,173.445721 39.5866576,155.666777 C39.8314955,155.194354 40.1446016,154.767988 40.5139403,154.404068 L42.6003264,152.48475 L44.2694353,150.9695 C47.9424817,148.025089 51.7659415,145.310109 55.7213769,142.837653 C64.3745338,137.298663 73.6047202,132.906923 83.2153094,129.755987 C96.707273,125.614301 140.84593,123.593966 210.392134,124.048542 C279.938338,123.644475 324.076995,125.614301 337.522595,129.806495 C347.149173,132.953667 356.395112,137.345496 365.062892,142.888161 C369.014964,145.311478 372.838356,147.975821 376.514833,150.868483 L378.183942,152.333225 C379.276983,153.139789 380.246989,154.128323 381.058518,155.26271 C386.019481,173.142671 390.331346,191.931783 394.040477,210.821911 L312.068684,330.375208 C309.974776,328.463279 307.470563,327.160071 304.789515,326.587081 L115.716569,326.536572 Z" id="Shape"></path>
                </g>
            </g>
        </g>
    </g>
</svg>