<svg width="15px" height="15px" viewBox="0 0 15 15" version="1.1" xmlns="http://www.w3.org/2000/svg" xmlns:xlink="http://www.w3.org/1999/xlink">
    <!-- Generator: Sketch 48.1 (47250) - http://www.bohemiancoding.com/sketch -->
    <desc>Created with Sketch.</desc>
    <defs></defs>
    <g id="Symbols" stroke="none" stroke-width="1" fill="none" fill-rule="evenodd">
        <g id="new-left" transform="translate(-900.000000, -87.000000)" fill="#F15959" fill-rule="nonzero">
            <g id="new">
                <g id="info" transform="translate(770.000000, 40.000000)">
                    <g id="tag" transform="translate(130.000000, 47.000000)">
                        <path d="M0.347294807,0.001806539 C0.197630075,0.0163692457 0.0701878904,0.116818374 0.0210884416,0.258920346 C-0.0280110073,0.401022317 0.0102423641,0.558700447 0.119003377,0.662519907 L0.77383932,1.31722679 L0.77383932,7.31169899 C0.774654056,7.41334006 0.815694683,7.51052239 0.887985035,7.58199082 C0.887985035,7.58199082 2.63318449,9.33528864 4.39045618,11.1017911 C5.26909193,11.9850616 6.14968917,12.8744154 6.81755454,13.5464306 C7.15148733,13.8824286 7.42870694,14.1618214 7.62858988,14.3633126 C7.72853135,14.4640485 7.81280386,14.5468323 7.86889665,14.603572 C7.92498944,14.6603116 7.97366175,14.7159269 7.95300402,14.6936693 C8.12489853,14.8788035 8.37718103,15 8.65590132,15 C8.94397934,15 9.20313135,14.8677324 9.37682162,14.6696433 C9.35140024,14.6986474 9.37185977,14.6747849 9.38282929,14.6636368 C9.39379882,14.6524888 9.41011276,14.6365548 9.43089065,14.6155849 C9.47244622,14.573626 9.53617596,14.5166269 9.61112072,14.4413969 C9.76101024,14.2909368 9.96642678,14.0743478 10.2178953,13.8227289 C10.7208324,13.3194719 11.3873503,12.6589508 12.0502344,11.9967574 C13.3699765,10.6783676 14.6696935,9.37779534 14.6815935,9.36591691 C14.6857403,9.36226497 14.6895217,9.35755589 14.6936089,9.35390394 C14.8778665,9.18143613 15,8.93469933 15,8.65715166 C15,8.37231933 14.8686629,8.11398281 14.6695782,7.94237993 C14.6725234,7.94526304 14.6917574,7.95862147 14.6575629,7.93036696 C14.6555866,7.92844488 14.6539333,7.92666696 14.6515552,7.92436047 C14.6372906,7.91052153 14.6186908,7.89112779 14.5914785,7.86429562 C14.5370538,7.81063128 14.4562085,7.73420957 14.3571794,7.63604919 C14.3116993,7.59096364 14.2246268,7.50356381 14.1709416,7.44984815 L14.9519386,4.58475472 L14.9579463,4.56673527 L14.9519386,4.56673527 C15.0258803,4.32191285 15.0109053,4.0412668 14.8738389,3.80391165 C14.7198279,3.53721025 14.4571841,3.41093183 14.2430337,3.35342526 L8.5237326,1.81576506 C8.51772575,1.81562428 8.51171643,1.81562428 8.50570959,1.81576506 C8.29452935,1.60520287 7.58052853,0.890766344 7.58052853,0.890766344 C7.50904601,0.818490239 7.41184453,0.7774577 7.31018342,0.776643125 L1.32053722,0.776643125 L0.659693606,0.115929757 C0.578252659,0.0325013129 0.463348066,-0.00947478312 0.347294807,0.001806539 Z M2.56013258,2 L7.74905303,2 C7.8603807,2.11091758 9.49277868,3.73908091 11.2452652,5.48390152 C12.150871,6.38554606 13.0591989,7.28947545 13.7443182,7.97064394 C14.0868778,8.31122424 14.3718544,8.59991288 14.5752841,8.80160985 C14.676999,8.90245833 14.7586268,8.97957197 14.8153409,9.03551136 C14.843698,9.06348106 14.8667309,9.08726515 14.8830492,9.1032197 C14.8912077,9.11109848 14.8957223,9.11597348 14.9015152,9.12168561 C14.907308,9.12720076 14.8953205,9.11557955 14.9322917,9.14630682 C14.9776648,9.18400682 15,9.22559697 15,9.28787879 C15,9.3450197 14.9757071,9.39635 14.9322917,9.43560606 C14.928098,9.43961842 14.9239934,9.44372295 14.9199811,9.44791667 C14.9199811,9.44791667 13.5701517,10.7927371 12.2116477,12.1500947 C11.5323958,12.8287932 10.8498804,13.5114409 10.3342803,14.0274621 C10.0764803,14.2854727 9.86058945,14.5005242 9.70643939,14.655303 C9.62936436,14.7326924 9.56540338,14.7959 9.5217803,14.8399621 C9.49996886,14.8619833 9.48551759,14.8821235 9.47253788,14.8953598 C9.45955758,14.9085568 9.46567742,14.8979205 9.43560606,14.9322917 C9.39695273,14.9763932 9.34711959,15 9.28787879,15 C9.23121277,15 9.1860102,14.9750735 9.14630682,14.9322917 C9.11290489,14.896325 9.09973136,14.8863879 9.04166667,14.8276515 C8.98360197,14.7688955 8.89801706,14.6848485 8.79545455,14.5814394 C8.59032952,14.3746212 8.30671482,14.0887394 7.96448864,13.7443182 C7.28003627,13.0555152 6.37186336,12.1443038 5.47159091,11.2391098 C3.72957476,9.48759621 2.11066605,7.86026212 2,7.74905303 L2,2.55397727 L2.90482955,3.45880682 C2.82896115,3.61428879 2.78787879,3.78646217 2.78787879,3.96969697 C2.78787879,4.61773121 3.32166292,5.15151515 3.96969697,5.15151515 C4.61773102,5.15151515 5.15151515,4.61773121 5.15151515,3.96969697 C5.15151515,3.32166273 4.61773102,2.78787879 3.96969697,2.78787879 C3.78841256,2.78787879 3.61918014,2.83046895 3.46496212,2.90482955 L2.56013258,2 Z M10,3 L14.799585,4.21898928 C14.9080278,4.24649654 14.9510906,4.27224355 14.974705,4.31087289 C15.0065556,4.36297458 15.0052824,4.41861243 14.9876768,4.47013783 C14.9875248,4.47626256 14.9875248,4.48238982 14.9876768,4.48851455 L14.2612532,7 C13.5396075,6.32238211 12.5821468,5.42861868 11.6279673,4.53139357 C10.8121923,3.76431172 10.6647212,3.62577142 10,3 Z M3.5,3 C3.7820645,3 4,3.217935 4,3.5 C4,3.782065 3.7820645,4 3.5,4 C3.2179355,4 3,3.782065 3,3.5 C3,3.217935 3.2179355,3 3.5,3 Z" id="Shape"></path>
                    </g>
                </g>
            </g>
        </g>
    </g>
</svg>