<svg xmlns="http://www.w3.org/2000/svg" xmlns:xlink="http://www.w3.org/1999/xlink" version="1.1" x="0px" y="0px" viewBox="0 0 100 125" style="enable-background:new 0 0 100 100;" xml:space="preserve"><style type="text/css">
	.st0{fill:none;stroke:#2B2523;stroke-width:2;stroke-miterlimit:10;}
	.st1{fill:none;stroke:#13110C;stroke-width:4;stroke-linecap:round;stroke-linejoin:round;stroke-miterlimit:10;}
	.st2{fill:none;stroke:#000000;stroke-width:4;stroke-miterlimit:10;}
	.st3{fill:#FFFFFF;stroke:#000000;stroke-width:4;stroke-miterlimit:10;}
	.st4{fill:none;stroke:#13110C;stroke-width:2;stroke-linecap:round;stroke-linejoin:round;stroke-miterlimit:10;}
	.st5{fill:none;stroke:#000000;stroke-width:2;stroke-miterlimit:10;}
	.st6{fill:#FFFFFF;}
	.st7{fill:none;stroke:#13110C;stroke-width:2;stroke-linecap:square;stroke-miterlimit:10;}
	.st8{fill:none;stroke:#2B2523;stroke-width:4;stroke-linecap:round;stroke-linejoin:round;stroke-miterlimit:10;}
	.st9{fill:none;stroke:#2B2523;stroke-width:2;stroke-linejoin:round;stroke-miterlimit:10;}
	.st10{fill:#010202;}
	.st11{fill:#13110C;}
	.st12{fill:none;stroke:#13110C;stroke-miterlimit:10;}
	.st13{fill:none;stroke:#13110C;stroke-linecap:square;stroke-miterlimit:10;}
	.st14{fill:none;stroke:#13110C;stroke-width:4;stroke-linecap:round;stroke-linejoin:round;stroke-miterlimit:5;}
	.st15{fill:none;stroke:#13110C;stroke-width:2;stroke-linecap:round;stroke-linejoin:round;stroke-miterlimit:5;}
	.st16{fill:none;stroke:#13110C;stroke-width:2;stroke-miterlimit:10;}
	.st17{fill:#2B2523;}
	.st18{fill:#FFFFFF;stroke:#000000;stroke-width:2;stroke-miterlimit:10;}
	.st19{fill:none;stroke:#2B2523;stroke-width:4;stroke-linejoin:round;stroke-miterlimit:10;}
</style><path class="st1" d="M49.8,2.9c28.3,0,23.4,33.4,23.4,33.4c0,6.4-2.7,18.8-9.9,24.4c-1.8,1.4-2.8,3.7-2.5,6c0.3,2.3,1.7,4.3,3.9,5.3  l29.1,13.8c0.2,0.1,2.8,0.5,2.8,4.1l0,6.5L3,96.5v-6.8c0-2.7,2-3.5,2.8-3.9L35.2,72c2.1-1,3.6-3,3.8-5.3c0.3-2.3-0.6-4.6-2.5-6  c-7-5.6-10.2-17.9-10.2-24.4C26.4,36.3,20.9,2.9,49.8,2.9"/></svg>