<svg width="185px" height="188px" viewBox="0 0 185 188" version="1.1" xmlns="http://www.w3.org/2000/svg" xmlns:xlink="http://www.w3.org/1999/xlink">
    <!-- Generator: Sketch 48.1 (47250) - http://www.bohemiancoding.com/sketch -->
    <desc>Created with Sketch.</desc>
    <defs></defs>
    <g id="Contact-Us" stroke="none" stroke-width="1" fill="none" fill-rule="evenodd" fill-opacity="0.3">
        <g id="Contact-Us--v2(Desktop)" transform="translate(-135.000000, -918.000000)" fill="#F15959">
            <g id="Contacts" transform="translate(0.000000, 451.000000)">
                <g id="form" transform="translate(135.000000, 96.000000)">
                    <g id="Group-2" transform="translate(-190.000000, 371.000000)">
                        <path d="M187.5,375 C83.9466094,375 0,291.053391 0,187.5 C0,83.9466094 83.9466094,0 187.5,0 C291.053391,0 375,83.9466094 375,187.5 C375,291.053391 291.053391,375 187.5,375 Z M187.77884,331.326911 C267.05825,331.326911 331.326911,267.05825 331.326911,187.77884 C331.326911,108.49943 267.05825,44.2307693 187.77884,44.2307693 C108.49943,44.2307693 44.2307693,108.49943 44.2307693,187.77884 C44.2307693,267.05825 108.49943,331.326911 187.77884,331.326911 Z" id="Oval-2"></path>
                    </g>
                </g>
            </g>
        </g>
    </g>
</svg>