<svg width="21px" height="14px" viewBox="0 0 21 14" version="1.1" xmlns="http://www.w3.org/2000/svg" xmlns:xlink="http://www.w3.org/1999/xlink">
    <!-- Generator: Sketch 48.1 (47250) - http://www.bohemiancoding.com/sketch -->
    <desc>Created with Sketch.</desc>
    <defs></defs>
    <g id="Symbols" stroke="none" stroke-width="1" fill="none" fill-rule="evenodd">
        <g id="social" transform="translate(-112.000000, -14.000000)" fill="#FFFFFF" fill-rule="nonzero">
            <g id="soc">
                <g id="soc-discord" transform="translate(102.000000, 1.000000)">
                    <g id="Controller" transform="translate(10.200000, 13.600000)">
                        <path d="M17.3158279,1.79431072 C16.1487965,0.671043034 12.0495988,-9.23705556e-14 12.0495988,-9.23705556e-14 L12.0495988,0.350109409 C12.0495988,0.350109409 14.2231947,1.07950401 14.6754194,1.59008023 C14.6754194,1.59008023 14.3690737,1.72137126 14.3690737,1.72137126 C13.9460248,1.32749818 12.8519329,1.06491612 12.3267688,0.919037199 C12.297593,0.904449307 12.2538293,0.904449307 12.2392414,0.904449307 C11.9037199,0.846097739 11.5390226,0.802334063 11.1889132,0.773158279 C11.1451495,0.773158279 11.1159737,0.773158279 11.0722101,0.758570387 C10.9555069,0.743982495 10.7512764,0.743982495 10.7512764,0.743982495 C10.7512764,0.743982495 10.6637491,0.743982495 10.6345733,0.743982495 C10.4595186,0.743982495 10.2552881,0.729394602 10.0802334,0.729394602 C10.0656455,0.729394602 10.0510576,0.729394602 10.0364697,0.729394602 C10.0072939,0.729394602 9.99270605,0.729394602 9.96353027,0.729394602 C9.78847557,0.729394602 9.65718454,0.729394602 9.48212983,0.743982495 C9.42377826,0.729394602 9.42377826,0.729394602 9.42377826,0.729394602 C9.42377826,0.729394602 9.38001459,0.729394602 9.3654267,0.729394602 C9.23413567,0.729394602 9.08825675,0.743982495 8.95696572,0.758570387 C8.91320204,0.758570387 8.86943837,0.758570387 8.8110868,0.773158279 C8.4463895,0.802334063 8.09628009,0.846097739 7.76075857,0.904449307 C7.73158279,0.904449307 7.702407,0.904449307 7.67323122,0.919037199 C7.1480671,1.06491612 6.06856309,1.32749818 5.64551422,1.72137126 C5.64551422,1.72137126 5.38293217,1.59008023 5.38293217,1.59008023 C5.83515682,1.07950401 8.09628009,0.350109409 8.09628009,0.350109409 L8.09628009,-9.23705556e-14 C8.09628009,-9.23705556e-14 3.90955507,0.685630926 2.74252371,1.79431072 C0.933625091,3.53026988 0,10.3865791 0,10.3865791 C0,10.3865791 1.21079504,13.1728665 4.91611962,12.2246535 L5.58716265,11.2326769 C5.58716265,11.2326769 4.02625821,10.5324581 4.02625821,10.2115244 C4.02625821,10.2115244 4.43471918,10.3574034 4.5805981,10.401167 C5.14952589,10.5908096 6.30196937,10.9846827 6.88548505,11.1597374 C6.91466083,11.1743253 6.94383662,11.1743253 6.9730124,11.1743253 C7.06053975,11.1889132 7.1480671,11.2035011 7.22100656,11.2326769 C7.26477024,11.2472648 7.30853392,11.2472648 7.35229759,11.2618527 C7.42523705,11.2764406 7.49817651,11.2910284 7.58570387,11.3056163 C7.64405543,11.3202042 7.702407,11.3202042 7.76075857,11.3347921 C7.83369803,11.34938 7.90663749,11.3639679 7.97957695,11.3639679 C8.03792852,11.3785558 8.11086798,11.3785558 8.16921955,11.3931437 C8.24215901,11.4077316 8.30051058,11.4077316 8.37345004,11.4223195 C8.4463895,11.4369074 8.51932896,11.4369074 8.59226842,11.4514953 C8.65061999,11.4514953 8.72355945,11.4660832 8.78191101,11.4660832 C8.85485047,11.4660832 8.94237783,11.480671 9.01531729,11.480671 C9.07366885,11.480671 9.14660832,11.4952589 9.20495988,11.4952589 C9.27789934,11.4952589 9.27789934,11.4952589 9.42377826,11.5098468 C9.42377826,11.5098468 9.40919037,11.5098468 9.42377826,11.5098468 C9.46754194,11.5098468 9.51130562,11.5098468 9.55506929,11.5098468 C9.70094821,11.5098468 9.81765135,11.5098468 9.96353027,11.5098468 C9.97811816,11.5098468 9.99270605,11.5098468 10.0072939,11.5098468 C10.0218818,11.5098468 10.0218818,11.5098468 10.0364697,11.5098468 C10.0656455,11.5098468 10.0948213,11.5098468 10.1239971,11.5098468 C10.1531729,11.5098468 10.1823487,11.5098468 10.2115244,11.5098468 C10.2990518,11.5098468 10.3865791,11.5098468 10.4741065,11.5098468 C10.5178702,11.5098468 10.6053975,11.5098468 10.6637491,11.5098468 C10.678337,11.5098468 10.7512764,11.5098468 10.7512764,11.5098468 C10.7512764,11.5098468 10.7950401,11.5098468 10.8242159,11.5098468 C10.8825675,11.5098468 10.9263311,11.4952589 10.9992706,11.4952589 C11.0722101,11.4952589 11.1451495,11.480671 11.2326769,11.480671 C11.2910284,11.480671 11.3639679,11.4660832 11.4223195,11.4660832 C11.4952589,11.4514953 11.5681984,11.4514953 11.62655,11.4369074 C11.6994894,11.4223195 11.757841,11.4223195 11.8307805,11.4077316 C11.889132,11.3931437 11.9620715,11.3931437 12.020423,11.3785558 C12.0933625,11.3639679 12.166302,11.34938 12.2392414,11.34938 C12.297593,11.3347921 12.3559446,11.3347921 12.4142961,11.3202042 C12.4872356,11.3056163 12.5747629,11.2910284 12.6477024,11.2764406 C12.6914661,11.2618527 12.7352298,11.2618527 12.7789934,11.2472648 C12.8665208,11.2326769 12.9540481,11.218089 13.0269876,11.1889132 C13.0561634,11.1889132 13.0853392,11.1743253 13.114515,11.1743253 C13.6980306,11.0138585 14.8504741,10.6199854 15.4194019,10.4157549 C15.5506929,10.3719912 15.9737418,10.2261123 15.9737418,10.2261123 C15.9737418,10.5324581 14.4128373,11.2472648 14.4128373,11.2472648 L15.0838804,12.2392414 C18.7746171,13.1874544 20,10.401167 20,10.401167 C20,10.401167 19.1247265,3.53026988 17.3158279,1.79431072 Z M7.20641867,9.05908096 C6.28738147,9.05908096 5.54339898,8.31509847 5.54339898,7.39606127 C5.54339898,6.47702407 6.28738147,5.73304158 7.20641867,5.73304158 C8.12545587,5.73304158 8.86943837,6.47702407 8.86943837,7.39606127 C8.88402626,8.31509847 8.12545587,9.05908096 7.20641867,9.05908096 Z M12.7789934,9.05908096 C11.8599562,9.05908096 11.1159737,8.31509847 11.1159737,7.39606127 C11.1159737,6.47702407 11.8599562,5.73304158 12.7789934,5.73304158 C13.6980306,5.73304158 14.4420131,6.47702407 14.4420131,7.39606127 C14.4420131,8.31509847 13.6980306,9.05908096 12.7789934,9.05908096 Z" id="Shape"></path>
                    </g>
                </g>
            </g>
        </g>
    </g>
</svg>