<svg width="20px" height="20px" viewBox="0 0 20 20" version="1.1" xmlns="http://www.w3.org/2000/svg" xmlns:xlink="http://www.w3.org/1999/xlink">
    <!-- Generator: Sketch 48.1 (47250) - http://www.bohemiancoding.com/sketch -->
    <desc>Created with Sketch.</desc>
    <defs></defs>
    <g id="Symbols" stroke="none" stroke-width="1" fill="none" fill-rule="evenodd">
        <g id="social" transform="translate(-262.000000, -10.000000)" fill="#FFFFFF">
            <g id="soc">
                <g id="soc-instagran" transform="translate(252.000000, 0.000000)">
                    <path d="M12.5985841,10 L27.4665487,10 C28.8790265,10 30,11.1161013 30,12.5283959 L30,27.3966487 C30,28.8087663 28.879115,30 27.4665487,30 L12.5985841,30 C11.1864602,30 10,28.8088548 10,27.3966487 L10,12.5283959 C10,11.1161013 11.1864602,10 12.5985841,10 Z M24.6024779,12.2123796 C24.1069027,12.2123796 23.7168142,12.5884841 23.7168142,13.0837917 L23.7168142,15.2393573 C23.7168142,15.7346649 24.1069027,16.1061677 24.6024779,16.1061677 L26.8633628,16.1061677 C27.3589381,16.1061677 27.7876106,15.7346649 27.7876106,15.2393573 L27.7876106,13.0837917 C27.7876106,12.5884841 27.3589381,12.2123796 26.8633628,12.2123796 L24.6024779,12.2123796 Z M27.7876106,18.4070424 L26.0130088,18.4070424 C26.179292,18.9380135 26.269292,19.5334091 26.269292,20.1299552 C26.269292,23.4570201 23.4853982,26.1570967 20.0516814,26.1570967 C16.6177876,26.1570967 13.8342478,23.4553387 13.8342478,20.1282738 C13.8342478,19.5317277 13.9240708,18.9380135 14.090708,18.4070424 L12.2123894,18.4070424 L12.2123894,26.8695714 C12.2123894,27.3070916 12.6115044,27.6990367 13.0487611,27.6990367 L26.9781416,27.6990367 C27.4157522,27.6990367 27.7876106,27.3070916 27.7876106,26.8695714 L27.7876106,18.4070424 Z M20.0516814,16.026522 C17.8330088,16.026522 16.0343363,17.7692577 16.0343363,19.9191596 C16.0343363,22.0690616 17.8330088,23.8117973 20.0516814,23.8117973 C22.270531,23.8117973 24.0690265,22.0690616 24.0690265,19.9191596 C24.0690265,17.7692577 22.270531,16.026522 20.0516814,16.026522 Z" id="Shape"></path>
                </g>
            </g>
        </g>
    </g>
</svg>