<svg width="20px" height="17px" viewBox="0 0 20 17" version="1.1" xmlns="http://www.w3.org/2000/svg" xmlns:xlink="http://www.w3.org/1999/xlink">
    <!-- Generator: Sketch 48.1 (47250) - http://www.bohemiancoding.com/sketch -->
    <desc>Created with Sketch.</desc>
    <defs></defs>
    <g id="Symbols" stroke="none" stroke-width="1" fill="none" fill-rule="evenodd">
        <g id="social" transform="translate(-61.000000, -12.000000)" fill="#FFFFFF" fill-rule="nonzero">
            <g id="soc">
                <g id="soc-reddit" transform="translate(51.000000, 1.000000)">
                    <path d="M17.1994722,22.4140949 C16.3027041,22.4140949 15.5738455,21.6852363 15.5738455,20.7894062 C15.5738455,19.8935761 16.3027041,19.1647175 17.1994722,19.1647175 C18.0953023,19.1647175 18.824161,19.8935761 18.824161,20.7894062 C18.824161,21.6852363 18.0953023,22.4140949 17.1994722,22.4140949 Z M28.9587666,21.2818782 C28.9831557,21.4676105 28.9962883,21.6505287 28.9962883,21.8287567 C28.9962883,25.2075839 24.9542654,27.956985 19.9845189,27.956985 C15.0147725,27.956985 10.9727495,25.2075839 10.9727495,21.8287567 C10.9727495,21.6439624 10.9868202,21.4526019 11.0130853,21.2584272 C10.3761548,20.7884681 10,20.0521052 10,19.2594597 C10,17.8852282 11.118146,16.7680202 12.4914395,16.7680202 C13.0270615,16.7680202 13.5486128,16.942496 13.977298,17.2614303 C15.5222532,16.3224502 17.4912033,15.7746337 19.561462,15.7089708 L21.148629,11.1979269 L24.9523893,12.1068895 C25.3107213,11.4286852 26.0114387,11 26.7890755,11 C27.9353628,11 28.8687146,11.9333518 28.8687146,13.0796391 C28.8687146,14.2259264 27.9353628,15.1592782 26.7890755,15.1592782 C25.7103272,15.1592782 24.8191873,14.3319251 24.7188168,13.278504 L21.9168854,12.608742 L20.8193763,15.7267936 C22.7423623,15.848739 24.566854,16.3909273 26.0076865,17.2717487 C26.4391858,16.9453101 26.9654274,16.7670821 27.5085537,16.7670821 C28.8827852,16.7670821 29.9999932,17.8852282 29.9999932,19.2585217 C30.0018693,20.0680519 29.615396,20.8128572 28.9587666,21.2818782 Z M11.1941274,19.2594597 C11.1941274,19.5089789 11.2672947,19.7509937 11.4014347,19.958301 C11.7297494,19.2622738 12.2437964,18.6065825 12.9126204,18.0306247 C12.7784804,17.9846606 12.636836,17.9612096 12.4923776,17.9612096 C11.7766515,17.9612096 11.1941274,18.5437337 11.1941274,19.2594597 Z M27.8021608,21.8287567 C27.8021608,19.1074969 24.2948218,16.8946558 19.9845189,16.8946558 C15.674216,16.8946558 12.166877,19.1084349 12.166877,21.8287567 C12.166877,24.5490785 15.674216,26.7628575 19.9845189,26.7628575 C24.2948218,26.7628575 27.8021608,24.5490785 27.8021608,21.8287567 Z M27.0667359,18.0400051 C27.739312,18.6215911 28.2552351,19.2857249 28.5807357,19.9892564 C28.7280083,19.7753828 28.8086799,19.5221115 28.8086799,19.2594597 C28.8086799,18.5437337 28.2261558,17.9612096 27.5113678,17.9612096 C27.3575289,17.9612096 27.2074422,17.9884128 27.0667359,18.0400051 Z M25.9054399,13.0805771 C25.9054399,13.569297 26.3031697,13.9660888 26.7909516,13.9660888 C27.2787334,13.9660888 27.6764632,13.568359 27.6764632,13.0805771 C27.6764632,12.5918573 27.2787334,12.1950655 26.7909516,12.1950655 C26.3031697,12.1950655 25.9054399,12.5927953 25.9054399,13.0805771 Z M22.9853152,23.6860798 C22.823972,23.6860798 22.6720092,23.7498667 22.5631963,23.8605556 C22.5313029,23.8924491 21.7499139,24.6269359 19.9685722,24.6269359 C18.2088054,24.6269359 17.4996457,23.891511 17.4977696,23.8896349 C17.3842665,23.7592471 17.2201092,23.6851418 17.0475094,23.6851418 C16.9058651,23.6851418 16.7679729,23.7357961 16.6600981,23.8277242 C16.5390907,23.9309088 16.4649854,24.0763053 16.4527908,24.2348344 C16.4405963,24.3943015 16.4912505,24.5481404 16.5944352,24.6691478 C16.6225764,24.7019793 16.8824141,24.9965245 17.4330447,25.276999 C18.1393903,25.6372072 18.9920705,25.8201253 19.9685722,25.8201253 C20.9385076,25.8201253 21.8024443,25.6400213 22.5350551,25.2863795 C23.1035085,25.0115332 23.3858592,24.7254304 23.4168145,24.6935369 C23.6410066,24.4590264 23.6344403,24.0819335 23.4008678,23.8539893 C23.2892408,23.7461145 23.1410302,23.6860798 22.9853152,23.6860798 Z M22.9665544,19.1647175 C22.0697862,19.1647175 21.3409276,19.8935761 21.3409276,20.7894062 C21.3409276,21.6852363 22.0697862,22.4140949 22.9665544,22.4140949 C23.8623845,22.4140949 24.5912431,21.6852363 24.5912431,20.7894062 C24.5912431,19.8935761 23.8623845,19.1647175 22.9665544,19.1647175 Z" id="Shape"></path>
                </g>
            </g>
        </g>
    </g>
</svg>