<svg width="157px" height="177px" viewBox="0 0 157 177" version="1.1" xmlns="http://www.w3.org/2000/svg" xmlns:xlink="http://www.w3.org/1999/xlink">
    <!-- Generator: Sketch 48.1 (47250) - http://www.bohemiancoding.com/sketch -->
    <desc>Created with Sketch.</desc>
    <defs></defs>
    <g id="Home" stroke="none" stroke-width="1" fill="none" fill-rule="evenodd">
        <g id="Home(Mobile)" transform="translate(-163.000000, -5023.000000)" fill="#F15959" fill-rule="nonzero">
            <g id="Subscribe" transform="translate(0.000000, 4867.000000)">
                <g id="form" transform="translate(0.000000, 132.000000)">
                    <g id="icon" transform="translate(254.855865, 109.855865) rotate(-345.000000) translate(-254.855865, -109.855865) translate(179.855865, 34.855865)">
                        <path d="M147.550734,149.712088 L2.14796266,149.712088 C0.961251674,149.712088 0.000664349157,148.755327 0.000664349157,147.573344 L0.000664349157,51.6860251 C-0.002841444,51.5515898 0.00767593547,51.4189004 0.0287106944,51.2862109 C0.0795446951,50.9736924 0.200494559,50.6838707 0.372278424,50.4324592 C0.544062288,50.1793017 0.771938843,49.9628084 1.04539071,49.8004385 C1.15932899,49.7323479 1.28027885,49.6747327 1.4082403,49.627593 L24.5429693,40.5401129 L24.5429693,2.13874412 C24.5429693,0.956760633 25.5035567,0 26.6902676,0 L123.625448,0 C124.812159,0 125.772747,0.956760633 125.772747,2.13874412 L125.772747,40.5540802 L147.906572,49.5263301 C148.797043,49.6729868 149.501708,50.3661145 149.662974,51.2460549 C149.676997,51.3141455 149.689268,51.3822362 149.698032,51.4503268 C149.715561,51.607459 149.717314,51.7680831 149.699785,51.9269612 L149.699785,147.573344 C149.698032,148.755327 148.735692,149.712088 147.550734,149.712088 Z M4.29526096,145.4346 L145.403435,145.4346 L145.403435,55.8465372 L76.4041675,104.655297 C75.6591864,105.182563 74.6617883,105.182563 73.9168072,104.655297 L4.29526096,55.4065669 L4.29526096,145.4346 Z M28.835813,67.5197152 L75.1596109,100.288767 L121.474644,67.524953 C121.474644,67.5232071 121.474644,67.5232071 121.474644,67.5214611 L121.474644,4.27748823 L28.8340602,4.27748823 L28.8340602,41.9473193 C28.8340602,41.9804916 28.8340602,42.013664 28.8340602,42.0450904 L28.8340602,67.5197152 L28.835813,67.5197152 Z M125.770994,45.1720216 L125.770994,64.4870634 L143.129929,52.2080533 L125.770994,45.1720216 Z M6.95966376,52.0456833 L24.5412164,64.4835715 L24.5412164,45.1388493 L6.95966376,52.0456833 Z M31.8350191,138.681406 C19.3491368,138.681406 10.2866615,129.412351 10.2866615,116.642739 C10.2866615,101.462021 21.2580411,90.0140656 35.8070827,90.0140656 C48.0423008,90.0140656 56.5876717,98.4730168 56.5876717,110.584419 C56.5876717,121.953808 49.7741627,127.902136 43.0430398,127.902136 C41.0307145,127.902136 39.1288218,127.121712 37.8264196,125.7599 C37.5967901,125.518964 37.3566433,125.232634 37.1287668,124.893927 C35.3881405,126.461757 32.769313,127.902136 29.0181143,127.902136 C24.514923,127.902136 19.955639,124.406817 19.955639,117.726952 C19.955639,108.213469 27.7262295,100.472088 37.277763,100.472088 C38.7782424,100.472088 41.176205,100.83873 41.4443981,100.880632 C42.0140895,100.969673 42.5241824,101.283938 42.8607386,101.751842 C43.1972947,102.219747 43.328762,102.802882 43.227094,103.368558 L40.1875713,120.38074 C40.1560191,121.438764 40.4084363,122.255851 40.937811,122.809306 C41.4321279,123.326096 42.1998966,123.622902 43.0430398,123.622902 C47.6408875,123.622902 52.2930751,119.144633 52.2930751,110.582673 C52.2930751,100.988878 45.514624,94.2898079 35.8070827,94.2898079 C21.8733078,94.2898079 14.583011,105.533491 14.583011,116.640993 C14.583011,128.300204 23.2633548,134.400426 31.836772,134.400426 C35.9928898,134.400426 39.1989376,133.689839 42.2332016,132.09582 C43.2814337,131.545857 44.582083,131.945672 45.1342454,132.989728 C45.6864078,134.033784 45.2849945,135.327506 44.2367624,135.879215 C40.5504209,137.818925 36.7256005,138.681406 31.8350191,138.681406 Z M37.277763,104.751322 C29.2302148,104.751322 24.2502356,111.487057 24.2502356,117.728697 C24.2502356,121.20132 26.209974,123.624648 29.0181143,123.624648 C33.6369968,123.624648 35.582712,120.302174 35.9806195,119.507783 L38.6029528,104.83338 C38.1121417,104.78624 37.6371068,104.751322 37.277763,104.751322 Z M108.28585,63.5512537 L46.9344702,63.5512537 C45.7477592,63.5512537 44.7871719,62.5944931 44.7871719,61.4125096 C44.7871719,60.2305261 45.7477592,59.2737655 46.9344702,59.2737655 L108.28585,59.2737655 C109.472561,59.2737655 110.433149,60.2305261 110.433149,61.4125096 C110.433149,62.5944931 109.470809,63.5512537 108.28585,63.5512537 Z M108.28585,44.6080915 L46.9344702,44.6080915 C45.7477592,44.6080915 44.7871719,43.6513309 44.7871719,42.4693474 C44.7871719,41.2873639 45.7477592,40.3306033 46.9344702,40.3306033 L108.28585,40.3306033 C109.472561,40.3306033 110.433149,41.2873639 110.433149,42.4693474 C110.433149,43.6513309 109.470809,44.6080915 108.28585,44.6080915 Z M108.28585,25.0538596 L46.9344702,25.0538596 C45.7477592,25.0538596 44.7871719,24.097099 44.7871719,22.9151155 C44.7871719,21.733132 45.7477592,20.7763714 46.9344702,20.7763714 L108.28585,20.7763714 C109.472561,20.7763714 110.433149,21.733132 110.433149,22.9151155 C110.433149,24.097099 109.470809,25.0538596 108.28585,25.0538596 Z" id="Shape"></path>
                    </g>
                </g>
            </g>
        </g>
    </g>
</svg>