<svg width="15px" height="13px" viewBox="0 0 15 13" version="1.1" xmlns="http://www.w3.org/2000/svg" xmlns:xlink="http://www.w3.org/1999/xlink">
    <!-- Generator: Sketch 48.1 (47250) - http://www.bohemiancoding.com/sketch -->
    <desc>Created with Sketch.</desc>
    <defs></defs>
    <g id="Symbols" stroke="none" stroke-width="1" fill="none" fill-rule="evenodd">
        <g id="game-hover" transform="translate(-549.000000, -216.000000)" fill="#FFFFFF" fill-rule="nonzero">
            <g id="hover">
                <g>
                    <g id="trailer" transform="translate(541.000000, 207.000000)">
                        <path d="M10.6470588,9 C9.30958824,9 8.22058824,10.1065013 8.22058824,11.4655164 C8.22058824,12.8245314 9.30958824,13.9310328 10.6470588,13.9310328 C11.9845294,13.9310328 13.0735294,12.8245314 13.0735294,11.4655164 C13.0735294,10.1065013 11.9845294,9 10.6470588,9 Z M16.3823529,9 C15.0448824,9 13.9558824,10.1065013 13.9558824,11.4655164 C13.9558824,12.8245314 15.0448824,13.9310328 16.3823529,13.9310328 C17.7198235,13.9310328 18.8088235,12.8245314 18.8088235,11.4655164 C18.8088235,10.1065013 17.7198235,9 16.3823529,9 Z M10.6470588,9.44827571 C11.7461176,9.44827571 12.6323529,10.3487719 12.6323529,11.4655164 C12.6323529,12.5822608 11.7461176,13.4827571 10.6470588,13.4827571 C9.548,13.4827571 8.66176471,12.5822608 8.66176471,11.4655164 C8.66176471,10.3487719 9.548,9.44827571 10.6470588,9.44827571 Z M16.3823529,9.44827571 C17.4814118,9.44827571 18.3676471,10.3487719 18.3676471,11.4655164 C18.3676471,12.5822608 17.4814118,13.4827571 16.3823529,13.4827571 C15.2832941,13.4827571 14.3970588,12.5822608 14.3970588,11.4655164 C14.3970588,10.3487719 15.2832941,9.44827571 16.3823529,9.44827571 Z M8.22058824,14.8275842 C8.10508824,14.8275842 8.00002206,14.9343635 8,15.0517265 L8,21.7758621 C8.00002206,21.8932207 8.10508824,21.9999776 8.22058824,22 L18.8088235,22 C18.9243235,21.9999776 19.0293897,21.8932207 19.0294118,21.7758621 L19.0294118,20.2699247 L22.7173824,21.3135778 C22.8467353,21.3520623 22.9969779,21.2403968 23,21.1034486 L23,15.7241401 C22.9867647,15.5252626 22.8573015,15.4777902 22.7173824,15.5069953 L19.0294118,16.5506484 L19.0294118,15.0517265 C19.0272059,14.9418273 18.9549412,14.8332773 18.8088235,14.8275842 L8.22058824,14.8275842 Z M8.44117647,15.2758644 L18.5882353,15.2758644 L18.5882353,21.5517243 L8.44117647,21.5517243 L8.44117647,15.2758644 Z M22.5588235,16.0113055 L22.5588235,20.8092677 L19.0294118,19.8076404 L19.0294118,17.0129328 L22.5588235,16.0113055 Z"></path>
                    </g>
                </g>
            </g>
        </g>
    </g>
</svg>