<svg width="20px" height="17px" viewBox="0 0 20 17" version="1.1" xmlns="http://www.w3.org/2000/svg" xmlns:xlink="http://www.w3.org/1999/xlink">
    <!-- Generator: Sketch 48.1 (47250) - http://www.bohemiancoding.com/sketch -->
    <desc>Created with Sketch.</desc>
    <defs></defs>
    <g id="Symbols" stroke="none" stroke-width="1" fill="none" fill-rule="evenodd">
        <g id="social" transform="translate(-212.000000, -12.000000)" fill="#FFFFFF" fill-rule="nonzero">
            <g id="soc">
                <g id="soc-twitter" transform="translate(202.000000, 0.000000)">
                    <path d="M30,13.9239876 C29.2647579,14.2508154 28.4734981,14.4712436 27.6432664,14.5698762 C28.4909564,14.0624169 29.1409689,13.2585101 29.4475203,12.2996093 C28.6546108,12.7700899 27.7768842,13.1116266 26.8419027,13.2959011 C26.09367,12.4985927 25.0271325,12 23.8469786,12 C21.5812481,12 19.7440709,13.8370398 19.7440709,16.1033202 C19.7440709,16.424443 19.7802247,16.7374553 19.8504703,17.0383017 C16.4401898,16.8669492 13.4163977,15.2337042 11.3926091,12.7511195 C11.0393877,13.3567989 10.8371738,14.0615921 10.8371738,14.8142924 C10.8371738,16.2376941 11.5614873,17.4937985 12.6624602,18.229453 C11.990178,18.2079394 11.3572113,18.0232525 10.8038381,17.7158764 C10.8034257,17.7329223 10.8034257,17.7503806 10.8034257,17.7677702 C10.8034257,19.7554738 12.217892,21.4134628 14.0951409,21.7910846 C13.7508549,21.8844934 13.3883545,21.934875 13.0140319,21.934875 C12.7493393,21.934875 12.4922761,21.9092374 12.2418113,21.8609865 C12.7643232,23.4910011 14.2794841,24.6777534 16.0747339,24.7105392 C14.6704401,25.8111685 12.901584,26.4672983 10.9788335,26.4672983 C10.6479505,26.4672983 10.3211228,26.447778 10,26.4096309 C11.816351,27.5743885 13.9729328,28.2532004 16.2899384,28.2532004 C23.8376309,28.2532004 27.9644579,22.0009966 27.9644579,16.5786809 C27.9644579,16.4007987 27.960815,16.2234663 27.9531169,16.0473024 C28.7544806,15.4699411 29.4502696,14.7469336 30,13.9239876 Z" id="Shape"></path>
                </g>
            </g>
        </g>
    </g>
</svg>