<svg width="20px" height="20px" viewBox="0 0 20 20" version="1.1" xmlns="http://www.w3.org/2000/svg" xmlns:xlink="http://www.w3.org/1999/xlink">
    <!-- Generator: Sketch 48.1 (47250) - http://www.bohemiancoding.com/sketch -->
    <desc>Created with Sketch.</desc>
    <defs></defs>
    <g id="Symbols" stroke="none" stroke-width="1" fill="none" fill-rule="evenodd">
        <g id="social" transform="translate(-11.000000, -11.000000)" fill="#FFFFFF" fill-rule="nonzero">
            <g id="soc">
                <g id="soc-youtube">
                    <g id="youtube" transform="translate(11.000000, 11.000000)">
                        <path d="M16.3644,9.284 L3.9128,9.284 C1.9336,9.284 0.3292,10.89 0.3292,12.8688 L0.3292,15.7492 C0.3292,17.728 1.9336,19.3336 3.9128,19.3336 L16.3644,19.3336 C18.3432,19.3336 19.948,17.728 19.948,15.7492 L19.948,12.8688 C19.948,10.89 18.3432,9.284 16.3644,9.284 Z M6.5288,11.5264 L5.3712,11.5264 L5.3712,17.2784 L4.2528,17.2784 L4.2528,11.5264 L3.096,11.5264 L3.096,10.548 L6.5288,10.548 L6.5288,11.5264 Z M9.7988,17.2784 L8.8068,17.2784 L8.8068,16.7344 C8.6224,16.9356 8.4324,17.0892 8.234,17.1928 C8.0356,17.3008 7.844,17.3512 7.6576,17.3512 C7.4272,17.3512 7.256,17.278 7.1388,17.1292 C7.0236,16.9808 6.9648,16.7608 6.9648,16.4636 L6.9648,12.3128 L7.9568,12.3128 L7.9568,16.122 C7.9568,16.2396 7.9788,16.324 8.0184,16.3764 C8.0612,16.4304 8.1292,16.4552 8.2224,16.4552 C8.2944,16.4552 8.3872,16.4208 8.4988,16.3512 C8.6112,16.2808 8.7136,16.1928 8.8068,16.084 L8.8068,12.3124 L9.7988,12.3124 L9.7988,17.2784 Z M13.4004,16.2532 C13.4004,16.604 13.3224,16.8736 13.1668,17.0616 C13.012,17.2496 12.7856,17.342 12.4924,17.342 C12.2972,17.342 12.1236,17.3068 11.9728,17.234 C11.8212,17.162 11.6784,17.0512 11.5484,16.8976 L11.5484,17.278 L10.5444,17.278 L10.5444,10.548 L11.5484,10.548 L11.5484,12.7156 C11.6828,12.5656 11.8248,12.4492 11.9732,12.3712 C12.1248,12.2916 12.2772,12.2532 12.4316,12.2532 C12.7456,12.2532 12.9848,12.358 13.1504,12.5696 C13.3168,12.7812 13.3996,13.0912 13.3996,13.4976 L13.3996,16.2532 L13.4004,16.2532 Z M16.8416,14.9152 L14.9432,14.9152 L14.9432,15.8508 C14.9432,16.1116 14.9752,16.2932 15.04,16.3944 C15.1064,16.496 15.218,16.5456 15.3768,16.5456 C15.5416,16.5456 15.6556,16.5028 15.722,16.4172 C15.786,16.3308 15.8204,16.1428 15.8204,15.8508 L15.8204,15.6248 L16.8416,15.6248 L16.8416,15.8796 C16.8416,16.3884 16.718,16.772 16.4672,17.0308 C16.2204,17.2872 15.8484,17.4144 15.354,17.4144 C14.9088,17.4144 14.558,17.2788 14.3032,17.006 C14.0492,16.7348 13.9196,16.3584 13.9196,15.88 L13.9196,13.6496 C13.9196,13.2204 14.0612,12.8672 14.3424,12.5964 C14.6228,12.3256 14.984,12.1904 15.4284,12.1904 C15.8832,12.1904 16.2324,12.3156 16.476,12.5668 C16.7196,12.8184 16.8416,13.1784 16.8416,13.6492 L16.8416,14.9152 Z" id="Shape"></path>
                        <path d="M15.3864,13.0584 C15.228,13.0584 15.1152,13.1028 15.0464,13.1956 C14.976,13.2828 14.9432,13.432 14.9432,13.6404 L14.9432,14.1424 L15.8204,14.1424 L15.8204,13.6404 C15.8204,13.432 15.7852,13.2824 15.7156,13.1956 C15.6488,13.1032 15.5372,13.0584 15.3864,13.0584 Z" id="Shape"></path>
                        <path d="M11.9636,13.0416 C11.8932,13.0416 11.822,13.0572 11.7536,13.0896 C11.684,13.1212 11.616,13.1736 11.5488,13.2416 L11.5488,16.3348 C11.6284,16.4148 11.7072,16.4764 11.784,16.5116 C11.8604,16.5456 11.9396,16.5648 12.024,16.5648 C12.146,16.5648 12.2348,16.5296 12.292,16.4584 C12.3484,16.388 12.3772,16.2756 12.3772,16.1168 L12.3772,13.5524 C12.3772,13.3836 12.3436,13.2572 12.2732,13.1704 C12.2004,13.0848 12.0972,13.0416 11.9636,13.0416 Z" id="Shape"></path>
                        <polygon id="Shape" points="5.5432 7.5592 6.8008 7.5592 6.8008 4.4832 8.2652 0.144 6.9868 0.144 6.2084 3.108 6.1292 3.108 5.312 0.144 4.0452 0.144 5.5432 4.6216"></polygon>
                        <path d="M9.9692,7.6972 C10.4772,7.6972 10.8756,7.564 11.166,7.2976 C11.4544,7.03 11.5988,6.6648 11.5988,6.1968 L11.5988,3.3712 C11.5988,2.9548 11.4512,2.612 11.1572,2.3476 C10.8612,2.084 10.482,1.9512 10.0196,1.9512 C9.5116,1.9512 9.1072,2.0768 8.8064,2.3276 C8.5064,2.5784 8.3556,2.9148 8.3556,3.34 L8.3556,6.1752 C8.3556,6.6404 8.5024,7.0084 8.7956,7.2844 C9.0888,7.5592 9.4808,7.6972 9.9692,7.6972 Z M9.506,3.2984 C9.506,3.1796 9.5488,3.0836 9.6324,3.0084 C9.7192,2.9348 9.8292,2.8992 9.966,2.8992 C10.1136,2.8992 10.2332,2.9348 10.3244,3.0084 C10.4152,3.0836 10.4604,3.1796 10.4604,3.2984 L10.4604,6.2788 C10.4604,6.4248 10.416,6.5408 10.326,6.6244 C10.2368,6.7084 10.1168,6.7496 9.966,6.7496 C9.8184,6.7496 9.7044,6.7096 9.6244,6.6256 C9.5456,6.5436 9.5056,6.4284 9.5056,6.2784 L9.5056,3.2984 L9.506,3.2984 Z" id="Shape"></path>
                        <path d="M13.2856,7.6392 C13.4956,7.6392 13.7112,7.5792 13.9332,7.464 C14.1576,7.3472 14.3724,7.1764 14.5768,6.9536 L14.5768,7.5596 L15.694,7.5596 L15.694,2.0896 L14.5768,2.0896 L14.5768,6.2416 C14.4728,6.3604 14.3572,6.458 14.2332,6.5356 C14.1068,6.6124 14.0028,6.6508 13.9208,6.6508 C13.816,6.6508 13.7388,6.622 13.6936,6.5624 C13.6476,6.5052 13.6216,6.4116 13.6216,6.2832 L13.6216,2.0896 L12.506,2.0896 L12.506,6.6612 C12.506,6.9872 12.5716,7.2308 12.7012,7.3924 C12.8332,7.5564 13.026,7.6392 13.2856,7.6392 Z" id="Shape"></path>
                    </g>
                </g>
            </g>
        </g>
    </g>
</svg>